<?xml version="1.0" encoding="utf-8" standalone="no"?>
<!DOCTYPE svg PUBLIC "-//W3C//DTD SVG 1.1//EN"
  "http://www.w3.org/Graphics/SVG/1.1/DTD/svg11.dtd">
<svg xmlns:xlink="http://www.w3.org/1999/xlink" width="784.8pt" height="143.084676pt" viewBox="0 0 784.8 143.084676" xmlns="http://www.w3.org/2000/svg" version="1.1">
 <metadata>
  <rdf:RDF xmlns:dc="http://purl.org/dc/elements/1.1/" xmlns:cc="http://creativecommons.org/ns#" xmlns:rdf="http://www.w3.org/1999/02/22-rdf-syntax-ns#">
   <cc:Work>
    <dc:type rdf:resource="http://purl.org/dc/dcmitype/StillImage"/>
    <dc:date>2026-05-27T15:31:22.729960</dc:date>
    <dc:format>image/svg+xml</dc:format>
    <dc:creator>
     <cc:Agent>
      <dc:title>Matplotlib v3.10.9, https://matplotlib.org/</dc:title>
     </cc:Agent>
    </dc:creator>
   </cc:Work>
  </rdf:RDF>
 </metadata>
 <defs>
  <style type="text/css">*{stroke-linejoin: round; stroke-linecap: butt}</style>
 </defs>
 <g id="figure_1">
  <g id="patch_1">
   <path d="M 0 143.084676 
L 784.8 143.084676 
L 784.8 0 
L 0 0 
z
" style="fill: #ffffff"/>
  </g>
  <g id="axes_1">
   <g id="patch_2">
    <path d="M 14.26789 44.002107 
L 26.990092 44.002107 
L 26.990092 31.279905 
L 14.26789 31.279905 
z
" clip-path="url(#p6d929d504f)" style="fill: #ebedf0"/>
   </g>
   <g id="patch_3">
    <path d="M 14.26789 58.137887 
L 26.990092 58.137887 
L 26.990092 45.415685 
L 14.26789 45.415685 
z
" clip-path="url(#p6d929d504f)" style="fill: #ebedf0"/>
   </g>
   <g id="patch_4">
    <path d="M 14.26789 72.273667 
L 26.990092 72.273667 
L 26.990092 59.551465 
L 14.26789 59.551465 
z
" clip-path="url(#p6d929d504f)" style="fill: #ebedf0"/>
   </g>
   <g id="patch_5">
    <path d="M 14.26789 86.409447 
L 26.990092 86.409447 
L 26.990092 73.687245 
L 14.26789 73.687245 
z
" clip-path="url(#p6d929d504f)" style="fill: #ebedf0"/>
   </g>
   <g id="patch_6">
    <path d="M 14.26789 100.545226 
L 26.990092 100.545226 
L 26.990092 87.823025 
L 14.26789 87.823025 
z
" clip-path="url(#p6d929d504f)" style="fill: #ebedf0"/>
   </g>
   <g id="patch_7">
    <path d="M 14.26789 114.681006 
L 26.990092 114.681006 
L 26.990092 101.958804 
L 14.26789 101.958804 
z
" clip-path="url(#p6d929d504f)" style="fill: #ebedf0"/>
   </g>
   <g id="patch_8">
    <path d="M 14.26789 128.816786 
L 26.990092 128.816786 
L 26.990092 116.094584 
L 14.26789 116.094584 
z
" clip-path="url(#p6d929d504f)" style="fill: #ebedf0"/>
   </g>
   <g id="patch_9">
    <path d="M 28.40367 44.002107 
L 41.125872 44.002107 
L 41.125872 31.279905 
L 28.40367 31.279905 
z
" clip-path="url(#p6d929d504f)" style="fill: #ebedf0"/>
   </g>
   <g id="patch_10">
    <path d="M 28.40367 58.137887 
L 41.125872 58.137887 
L 41.125872 45.415685 
L 28.40367 45.415685 
z
" clip-path="url(#p6d929d504f)" style="fill: #ebedf0"/>
   </g>
   <g id="patch_11">
    <path d="M 28.40367 72.273667 
L 41.125872 72.273667 
L 41.125872 59.551465 
L 28.40367 59.551465 
z
" clip-path="url(#p6d929d504f)" style="fill: #ebedf0"/>
   </g>
   <g id="patch_12">
    <path d="M 28.40367 86.409447 
L 41.125872 86.409447 
L 41.125872 73.687245 
L 28.40367 73.687245 
z
" clip-path="url(#p6d929d504f)" style="fill: #ebedf0"/>
   </g>
   <g id="patch_13">
    <path d="M 28.40367 100.545226 
L 41.125872 100.545226 
L 41.125872 87.823025 
L 28.40367 87.823025 
z
" clip-path="url(#p6d929d504f)" style="fill: #ebedf0"/>
   </g>
   <g id="patch_14">
    <path d="M 28.40367 114.681006 
L 41.125872 114.681006 
L 41.125872 101.958804 
L 28.40367 101.958804 
z
" clip-path="url(#p6d929d504f)" style="fill: #ebedf0"/>
   </g>
   <g id="patch_15">
    <path d="M 28.40367 128.816786 
L 41.125872 128.816786 
L 41.125872 116.094584 
L 28.40367 116.094584 
z
" clip-path="url(#p6d929d504f)" style="fill: #ebedf0"/>
   </g>
   <g id="patch_16">
    <path d="M 42.53945 44.002107 
L 55.261651 44.002107 
L 55.261651 31.279905 
L 42.53945 31.279905 
z
" clip-path="url(#p6d929d504f)" style="fill: #ebedf0"/>
   </g>
   <g id="patch_17">
    <path d="M 42.53945 58.137887 
L 55.261651 58.137887 
L 55.261651 45.415685 
L 42.53945 45.415685 
z
" clip-path="url(#p6d929d504f)" style="fill: #ebedf0"/>
   </g>
   <g id="patch_18">
    <path d="M 42.53945 72.273667 
L 55.261651 72.273667 
L 55.261651 59.551465 
L 42.53945 59.551465 
z
" clip-path="url(#p6d929d504f)" style="fill: #ebedf0"/>
   </g>
   <g id="patch_19">
    <path d="M 42.53945 86.409447 
L 55.261651 86.409447 
L 55.261651 73.687245 
L 42.53945 73.687245 
z
" clip-path="url(#p6d929d504f)" style="fill: #ebedf0"/>
   </g>
   <g id="patch_20">
    <path d="M 42.53945 100.545226 
L 55.261651 100.545226 
L 55.261651 87.823025 
L 42.53945 87.823025 
z
" clip-path="url(#p6d929d504f)" style="fill: #ebedf0"/>
   </g>
   <g id="patch_21">
    <path d="M 42.53945 114.681006 
L 55.261651 114.681006 
L 55.261651 101.958804 
L 42.53945 101.958804 
z
" clip-path="url(#p6d929d504f)" style="fill: #ebedf0"/>
   </g>
   <g id="patch_22">
    <path d="M 42.53945 128.816786 
L 55.261651 128.816786 
L 55.261651 116.094584 
L 42.53945 116.094584 
z
" clip-path="url(#p6d929d504f)" style="fill: #ebedf0"/>
   </g>
   <g id="patch_23">
    <path d="M 56.675229 44.002107 
L 69.397431 44.002107 
L 69.397431 31.279905 
L 56.675229 31.279905 
z
" clip-path="url(#p6d929d504f)" style="fill: #ebedf0"/>
   </g>
   <g id="patch_24">
    <path d="M 56.675229 58.137887 
L 69.397431 58.137887 
L 69.397431 45.415685 
L 56.675229 45.415685 
z
" clip-path="url(#p6d929d504f)" style="fill: #ebedf0"/>
   </g>
   <g id="patch_25">
    <path d="M 56.675229 72.273667 
L 69.397431 72.273667 
L 69.397431 59.551465 
L 56.675229 59.551465 
z
" clip-path="url(#p6d929d504f)" style="fill: #ebedf0"/>
   </g>
   <g id="patch_26">
    <path d="M 56.675229 86.409447 
L 69.397431 86.409447 
L 69.397431 73.687245 
L 56.675229 73.687245 
z
" clip-path="url(#p6d929d504f)" style="fill: #ebedf0"/>
   </g>
   <g id="patch_27">
    <path d="M 56.675229 100.545226 
L 69.397431 100.545226 
L 69.397431 87.823025 
L 56.675229 87.823025 
z
" clip-path="url(#p6d929d504f)" style="fill: #ebedf0"/>
   </g>
   <g id="patch_28">
    <path d="M 56.675229 114.681006 
L 69.397431 114.681006 
L 69.397431 101.958804 
L 56.675229 101.958804 
z
" clip-path="url(#p6d929d504f)" style="fill: #ebedf0"/>
   </g>
   <g id="patch_29">
    <path d="M 56.675229 128.816786 
L 69.397431 128.816786 
L 69.397431 116.094584 
L 56.675229 116.094584 
z
" clip-path="url(#p6d929d504f)" style="fill: #ebedf0"/>
   </g>
   <g id="patch_30">
    <path d="M 70.811009 44.002107 
L 83.533211 44.002107 
L 83.533211 31.279905 
L 70.811009 31.279905 
z
" clip-path="url(#p6d929d504f)" style="fill: #ebedf0"/>
   </g>
   <g id="patch_31">
    <path d="M 70.811009 58.137887 
L 83.533211 58.137887 
L 83.533211 45.415685 
L 70.811009 45.415685 
z
" clip-path="url(#p6d929d504f)" style="fill: #ebedf0"/>
   </g>
   <g id="patch_32">
    <path d="M 70.811009 72.273667 
L 83.533211 72.273667 
L 83.533211 59.551465 
L 70.811009 59.551465 
z
" clip-path="url(#p6d929d504f)" style="fill: #ebedf0"/>
   </g>
   <g id="patch_33">
    <path d="M 70.811009 86.409447 
L 83.533211 86.409447 
L 83.533211 73.687245 
L 70.811009 73.687245 
z
" clip-path="url(#p6d929d504f)" style="fill: #ebedf0"/>
   </g>
   <g id="patch_34">
    <path d="M 70.811009 100.545226 
L 83.533211 100.545226 
L 83.533211 87.823025 
L 70.811009 87.823025 
z
" clip-path="url(#p6d929d504f)" style="fill: #ebedf0"/>
   </g>
   <g id="patch_35">
    <path d="M 70.811009 114.681006 
L 83.533211 114.681006 
L 83.533211 101.958804 
L 70.811009 101.958804 
z
" clip-path="url(#p6d929d504f)" style="fill: #ebedf0"/>
   </g>
   <g id="patch_36">
    <path d="M 70.811009 128.816786 
L 83.533211 128.816786 
L 83.533211 116.094584 
L 70.811009 116.094584 
z
" clip-path="url(#p6d929d504f)" style="fill: #ebedf0"/>
   </g>
   <g id="patch_37">
    <path d="M 84.946789 44.002107 
L 97.668991 44.002107 
L 97.668991 31.279905 
L 84.946789 31.279905 
z
" clip-path="url(#p6d929d504f)" style="fill: #ebedf0"/>
   </g>
   <g id="patch_38">
    <path d="M 84.946789 58.137887 
L 97.668991 58.137887 
L 97.668991 45.415685 
L 84.946789 45.415685 
z
" clip-path="url(#p6d929d504f)" style="fill: #ebedf0"/>
   </g>
   <g id="patch_39">
    <path d="M 84.946789 72.273667 
L 97.668991 72.273667 
L 97.668991 59.551465 
L 84.946789 59.551465 
z
" clip-path="url(#p6d929d504f)" style="fill: #ebedf0"/>
   </g>
   <g id="patch_40">
    <path d="M 84.946789 86.409447 
L 97.668991 86.409447 
L 97.668991 73.687245 
L 84.946789 73.687245 
z
" clip-path="url(#p6d929d504f)" style="fill: #ebedf0"/>
   </g>
   <g id="patch_41">
    <path d="M 84.946789 100.545226 
L 97.668991 100.545226 
L 97.668991 87.823025 
L 84.946789 87.823025 
z
" clip-path="url(#p6d929d504f)" style="fill: #ebedf0"/>
   </g>
   <g id="patch_42">
    <path d="M 84.946789 114.681006 
L 97.668991 114.681006 
L 97.668991 101.958804 
L 84.946789 101.958804 
z
" clip-path="url(#p6d929d504f)" style="fill: #ebedf0"/>
   </g>
   <g id="patch_43">
    <path d="M 84.946789 128.816786 
L 97.668991 128.816786 
L 97.668991 116.094584 
L 84.946789 116.094584 
z
" clip-path="url(#p6d929d504f)" style="fill: #ebedf0"/>
   </g>
   <g id="patch_44">
    <path d="M 99.082569 44.002107 
L 111.804771 44.002107 
L 111.804771 31.279905 
L 99.082569 31.279905 
z
" clip-path="url(#p6d929d504f)" style="fill: #ebedf0"/>
   </g>
   <g id="patch_45">
    <path d="M 99.082569 58.137887 
L 111.804771 58.137887 
L 111.804771 45.415685 
L 99.082569 45.415685 
z
" clip-path="url(#p6d929d504f)" style="fill: #ebedf0"/>
   </g>
   <g id="patch_46">
    <path d="M 99.082569 72.273667 
L 111.804771 72.273667 
L 111.804771 59.551465 
L 99.082569 59.551465 
z
" clip-path="url(#p6d929d504f)" style="fill: #ebedf0"/>
   </g>
   <g id="patch_47">
    <path d="M 99.082569 86.409447 
L 111.804771 86.409447 
L 111.804771 73.687245 
L 99.082569 73.687245 
z
" clip-path="url(#p6d929d504f)" style="fill: #ebedf0"/>
   </g>
   <g id="patch_48">
    <path d="M 99.082569 100.545226 
L 111.804771 100.545226 
L 111.804771 87.823025 
L 99.082569 87.823025 
z
" clip-path="url(#p6d929d504f)" style="fill: #ebedf0"/>
   </g>
   <g id="patch_49">
    <path d="M 99.082569 114.681006 
L 111.804771 114.681006 
L 111.804771 101.958804 
L 99.082569 101.958804 
z
" clip-path="url(#p6d929d504f)" style="fill: #ebedf0"/>
   </g>
   <g id="patch_50">
    <path d="M 99.082569 128.816786 
L 111.804771 128.816786 
L 111.804771 116.094584 
L 99.082569 116.094584 
z
" clip-path="url(#p6d929d504f)" style="fill: #ebedf0"/>
   </g>
   <g id="patch_51">
    <path d="M 113.218349 44.002107 
L 125.94055 44.002107 
L 125.94055 31.279905 
L 113.218349 31.279905 
z
" clip-path="url(#p6d929d504f)" style="fill: #ebedf0"/>
   </g>
   <g id="patch_52">
    <path d="M 113.218349 58.137887 
L 125.94055 58.137887 
L 125.94055 45.415685 
L 113.218349 45.415685 
z
" clip-path="url(#p6d929d504f)" style="fill: #ebedf0"/>
   </g>
   <g id="patch_53">
    <path d="M 113.218349 72.273667 
L 125.94055 72.273667 
L 125.94055 59.551465 
L 113.218349 59.551465 
z
" clip-path="url(#p6d929d504f)" style="fill: #ebedf0"/>
   </g>
   <g id="patch_54">
    <path d="M 113.218349 86.409447 
L 125.94055 86.409447 
L 125.94055 73.687245 
L 113.218349 73.687245 
z
" clip-path="url(#p6d929d504f)" style="fill: #ebedf0"/>
   </g>
   <g id="patch_55">
    <path d="M 113.218349 100.545226 
L 125.94055 100.545226 
L 125.94055 87.823025 
L 113.218349 87.823025 
z
" clip-path="url(#p6d929d504f)" style="fill: #ebedf0"/>
   </g>
   <g id="patch_56">
    <path d="M 113.218349 114.681006 
L 125.94055 114.681006 
L 125.94055 101.958804 
L 113.218349 101.958804 
z
" clip-path="url(#p6d929d504f)" style="fill: #ebedf0"/>
   </g>
   <g id="patch_57">
    <path d="M 113.218349 128.816786 
L 125.94055 128.816786 
L 125.94055 116.094584 
L 113.218349 116.094584 
z
" clip-path="url(#p6d929d504f)" style="fill: #ebedf0"/>
   </g>
   <g id="patch_58">
    <path d="M 127.354128 44.002107 
L 140.07633 44.002107 
L 140.07633 31.279905 
L 127.354128 31.279905 
z
" clip-path="url(#p6d929d504f)" style="fill: #ebedf0"/>
   </g>
   <g id="patch_59">
    <path d="M 127.354128 58.137887 
L 140.07633 58.137887 
L 140.07633 45.415685 
L 127.354128 45.415685 
z
" clip-path="url(#p6d929d504f)" style="fill: #ebedf0"/>
   </g>
   <g id="patch_60">
    <path d="M 127.354128 72.273667 
L 140.07633 72.273667 
L 140.07633 59.551465 
L 127.354128 59.551465 
z
" clip-path="url(#p6d929d504f)" style="fill: #ebedf0"/>
   </g>
   <g id="patch_61">
    <path d="M 127.354128 86.409447 
L 140.07633 86.409447 
L 140.07633 73.687245 
L 127.354128 73.687245 
z
" clip-path="url(#p6d929d504f)" style="fill: #ebedf0"/>
   </g>
   <g id="patch_62">
    <path d="M 127.354128 100.545226 
L 140.07633 100.545226 
L 140.07633 87.823025 
L 127.354128 87.823025 
z
" clip-path="url(#p6d929d504f)" style="fill: #ebedf0"/>
   </g>
   <g id="patch_63">
    <path d="M 127.354128 114.681006 
L 140.07633 114.681006 
L 140.07633 101.958804 
L 127.354128 101.958804 
z
" clip-path="url(#p6d929d504f)" style="fill: #ebedf0"/>
   </g>
   <g id="patch_64">
    <path d="M 127.354128 128.816786 
L 140.07633 128.816786 
L 140.07633 116.094584 
L 127.354128 116.094584 
z
" clip-path="url(#p6d929d504f)" style="fill: #ebedf0"/>
   </g>
   <g id="patch_65">
    <path d="M 141.489908 44.002107 
L 154.21211 44.002107 
L 154.21211 31.279905 
L 141.489908 31.279905 
z
" clip-path="url(#p6d929d504f)" style="fill: #ebedf0"/>
   </g>
   <g id="patch_66">
    <path d="M 141.489908 58.137887 
L 154.21211 58.137887 
L 154.21211 45.415685 
L 141.489908 45.415685 
z
" clip-path="url(#p6d929d504f)" style="fill: #ebedf0"/>
   </g>
   <g id="patch_67">
    <path d="M 141.489908 72.273667 
L 154.21211 72.273667 
L 154.21211 59.551465 
L 141.489908 59.551465 
z
" clip-path="url(#p6d929d504f)" style="fill: #ebedf0"/>
   </g>
   <g id="patch_68">
    <path d="M 141.489908 86.409447 
L 154.21211 86.409447 
L 154.21211 73.687245 
L 141.489908 73.687245 
z
" clip-path="url(#p6d929d504f)" style="fill: #ebedf0"/>
   </g>
   <g id="patch_69">
    <path d="M 141.489908 100.545226 
L 154.21211 100.545226 
L 154.21211 87.823025 
L 141.489908 87.823025 
z
" clip-path="url(#p6d929d504f)" style="fill: #ebedf0"/>
   </g>
   <g id="patch_70">
    <path d="M 141.489908 114.681006 
L 154.21211 114.681006 
L 154.21211 101.958804 
L 141.489908 101.958804 
z
" clip-path="url(#p6d929d504f)" style="fill: #ebedf0"/>
   </g>
   <g id="patch_71">
    <path d="M 141.489908 128.816786 
L 154.21211 128.816786 
L 154.21211 116.094584 
L 141.489908 116.094584 
z
" clip-path="url(#p6d929d504f)" style="fill: #ebedf0"/>
   </g>
   <g id="patch_72">
    <path d="M 155.625688 44.002107 
L 168.34789 44.002107 
L 168.34789 31.279905 
L 155.625688 31.279905 
z
" clip-path="url(#p6d929d504f)" style="fill: #ebedf0"/>
   </g>
   <g id="patch_73">
    <path d="M 155.625688 58.137887 
L 168.34789 58.137887 
L 168.34789 45.415685 
L 155.625688 45.415685 
z
" clip-path="url(#p6d929d504f)" style="fill: #ebedf0"/>
   </g>
   <g id="patch_74">
    <path d="M 155.625688 72.273667 
L 168.34789 72.273667 
L 168.34789 59.551465 
L 155.625688 59.551465 
z
" clip-path="url(#p6d929d504f)" style="fill: #ebedf0"/>
   </g>
   <g id="patch_75">
    <path d="M 155.625688 86.409447 
L 168.34789 86.409447 
L 168.34789 73.687245 
L 155.625688 73.687245 
z
" clip-path="url(#p6d929d504f)" style="fill: #ebedf0"/>
   </g>
   <g id="patch_76">
    <path d="M 155.625688 100.545226 
L 168.34789 100.545226 
L 168.34789 87.823025 
L 155.625688 87.823025 
z
" clip-path="url(#p6d929d504f)" style="fill: #ebedf0"/>
   </g>
   <g id="patch_77">
    <path d="M 155.625688 114.681006 
L 168.34789 114.681006 
L 168.34789 101.958804 
L 155.625688 101.958804 
z
" clip-path="url(#p6d929d504f)" style="fill: #ebedf0"/>
   </g>
   <g id="patch_78">
    <path d="M 155.625688 128.816786 
L 168.34789 128.816786 
L 168.34789 116.094584 
L 155.625688 116.094584 
z
" clip-path="url(#p6d929d504f)" style="fill: #ebedf0"/>
   </g>
   <g id="patch_79">
    <path d="M 169.761468 44.002107 
L 182.48367 44.002107 
L 182.48367 31.279905 
L 169.761468 31.279905 
z
" clip-path="url(#p6d929d504f)" style="fill: #ebedf0"/>
   </g>
   <g id="patch_80">
    <path d="M 169.761468 58.137887 
L 182.48367 58.137887 
L 182.48367 45.415685 
L 169.761468 45.415685 
z
" clip-path="url(#p6d929d504f)" style="fill: #ebedf0"/>
   </g>
   <g id="patch_81">
    <path d="M 169.761468 72.273667 
L 182.48367 72.273667 
L 182.48367 59.551465 
L 169.761468 59.551465 
z
" clip-path="url(#p6d929d504f)" style="fill: #ebedf0"/>
   </g>
   <g id="patch_82">
    <path d="M 169.761468 86.409447 
L 182.48367 86.409447 
L 182.48367 73.687245 
L 169.761468 73.687245 
z
" clip-path="url(#p6d929d504f)" style="fill: #ebedf0"/>
   </g>
   <g id="patch_83">
    <path d="M 169.761468 100.545226 
L 182.48367 100.545226 
L 182.48367 87.823025 
L 169.761468 87.823025 
z
" clip-path="url(#p6d929d504f)" style="fill: #ebedf0"/>
   </g>
   <g id="patch_84">
    <path d="M 169.761468 114.681006 
L 182.48367 114.681006 
L 182.48367 101.958804 
L 169.761468 101.958804 
z
" clip-path="url(#p6d929d504f)" style="fill: #ebedf0"/>
   </g>
   <g id="patch_85">
    <path d="M 169.761468 128.816786 
L 182.48367 128.816786 
L 182.48367 116.094584 
L 169.761468 116.094584 
z
" clip-path="url(#p6d929d504f)" style="fill: #ebedf0"/>
   </g>
   <g id="patch_86">
    <path d="M 183.897248 44.002107 
L 196.61945 44.002107 
L 196.61945 31.279905 
L 183.897248 31.279905 
z
" clip-path="url(#p6d929d504f)" style="fill: #ebedf0"/>
   </g>
   <g id="patch_87">
    <path d="M 183.897248 58.137887 
L 196.61945 58.137887 
L 196.61945 45.415685 
L 183.897248 45.415685 
z
" clip-path="url(#p6d929d504f)" style="fill: #ebedf0"/>
   </g>
   <g id="patch_88">
    <path d="M 183.897248 72.273667 
L 196.61945 72.273667 
L 196.61945 59.551465 
L 183.897248 59.551465 
z
" clip-path="url(#p6d929d504f)" style="fill: #ebedf0"/>
   </g>
   <g id="patch_89">
    <path d="M 183.897248 86.409447 
L 196.61945 86.409447 
L 196.61945 73.687245 
L 183.897248 73.687245 
z
" clip-path="url(#p6d929d504f)" style="fill: #ebedf0"/>
   </g>
   <g id="patch_90">
    <path d="M 183.897248 100.545226 
L 196.61945 100.545226 
L 196.61945 87.823025 
L 183.897248 87.823025 
z
" clip-path="url(#p6d929d504f)" style="fill: #ebedf0"/>
   </g>
   <g id="patch_91">
    <path d="M 183.897248 114.681006 
L 196.61945 114.681006 
L 196.61945 101.958804 
L 183.897248 101.958804 
z
" clip-path="url(#p6d929d504f)" style="fill: #ebedf0"/>
   </g>
   <g id="patch_92">
    <path d="M 183.897248 128.816786 
L 196.61945 128.816786 
L 196.61945 116.094584 
L 183.897248 116.094584 
z
" clip-path="url(#p6d929d504f)" style="fill: #ebedf0"/>
   </g>
   <g id="patch_93">
    <path d="M 198.033028 44.002107 
L 210.755229 44.002107 
L 210.755229 31.279905 
L 198.033028 31.279905 
z
" clip-path="url(#p6d929d504f)" style="fill: #ebedf0"/>
   </g>
   <g id="patch_94">
    <path d="M 198.033028 58.137887 
L 210.755229 58.137887 
L 210.755229 45.415685 
L 198.033028 45.415685 
z
" clip-path="url(#p6d929d504f)" style="fill: #ebedf0"/>
   </g>
   <g id="patch_95">
    <path d="M 198.033028 72.273667 
L 210.755229 72.273667 
L 210.755229 59.551465 
L 198.033028 59.551465 
z
" clip-path="url(#p6d929d504f)" style="fill: #ebedf0"/>
   </g>
   <g id="patch_96">
    <path d="M 198.033028 86.409447 
L 210.755229 86.409447 
L 210.755229 73.687245 
L 198.033028 73.687245 
z
" clip-path="url(#p6d929d504f)" style="fill: #ebedf0"/>
   </g>
   <g id="patch_97">
    <path d="M 198.033028 100.545226 
L 210.755229 100.545226 
L 210.755229 87.823025 
L 198.033028 87.823025 
z
" clip-path="url(#p6d929d504f)" style="fill: #ebedf0"/>
   </g>
   <g id="patch_98">
    <path d="M 198.033028 114.681006 
L 210.755229 114.681006 
L 210.755229 101.958804 
L 198.033028 101.958804 
z
" clip-path="url(#p6d929d504f)" style="fill: #ebedf0"/>
   </g>
   <g id="patch_99">
    <path d="M 198.033028 128.816786 
L 210.755229 128.816786 
L 210.755229 116.094584 
L 198.033028 116.094584 
z
" clip-path="url(#p6d929d504f)" style="fill: #ebedf0"/>
   </g>
   <g id="patch_100">
    <path d="M 212.168807 44.002107 
L 224.891009 44.002107 
L 224.891009 31.279905 
L 212.168807 31.279905 
z
" clip-path="url(#p6d929d504f)" style="fill: #ebedf0"/>
   </g>
   <g id="patch_101">
    <path d="M 212.168807 58.137887 
L 224.891009 58.137887 
L 224.891009 45.415685 
L 212.168807 45.415685 
z
" clip-path="url(#p6d929d504f)" style="fill: #ebedf0"/>
   </g>
   <g id="patch_102">
    <path d="M 212.168807 72.273667 
L 224.891009 72.273667 
L 224.891009 59.551465 
L 212.168807 59.551465 
z
" clip-path="url(#p6d929d504f)" style="fill: #ebedf0"/>
   </g>
   <g id="patch_103">
    <path d="M 212.168807 86.409447 
L 224.891009 86.409447 
L 224.891009 73.687245 
L 212.168807 73.687245 
z
" clip-path="url(#p6d929d504f)" style="fill: #ebedf0"/>
   </g>
   <g id="patch_104">
    <path d="M 212.168807 100.545226 
L 224.891009 100.545226 
L 224.891009 87.823025 
L 212.168807 87.823025 
z
" clip-path="url(#p6d929d504f)" style="fill: #ebedf0"/>
   </g>
   <g id="patch_105">
    <path d="M 212.168807 114.681006 
L 224.891009 114.681006 
L 224.891009 101.958804 
L 212.168807 101.958804 
z
" clip-path="url(#p6d929d504f)" style="fill: #ebedf0"/>
   </g>
   <g id="patch_106">
    <path d="M 212.168807 128.816786 
L 224.891009 128.816786 
L 224.891009 116.094584 
L 212.168807 116.094584 
z
" clip-path="url(#p6d929d504f)" style="fill: #ebedf0"/>
   </g>
   <g id="patch_107">
    <path d="M 226.304587 44.002107 
L 239.026789 44.002107 
L 239.026789 31.279905 
L 226.304587 31.279905 
z
" clip-path="url(#p6d929d504f)" style="fill: #ebedf0"/>
   </g>
   <g id="patch_108">
    <path d="M 226.304587 58.137887 
L 239.026789 58.137887 
L 239.026789 45.415685 
L 226.304587 45.415685 
z
" clip-path="url(#p6d929d504f)" style="fill: #ebedf0"/>
   </g>
   <g id="patch_109">
    <path d="M 226.304587 72.273667 
L 239.026789 72.273667 
L 239.026789 59.551465 
L 226.304587 59.551465 
z
" clip-path="url(#p6d929d504f)" style="fill: #ebedf0"/>
   </g>
   <g id="patch_110">
    <path d="M 226.304587 86.409447 
L 239.026789 86.409447 
L 239.026789 73.687245 
L 226.304587 73.687245 
z
" clip-path="url(#p6d929d504f)" style="fill: #ebedf0"/>
   </g>
   <g id="patch_111">
    <path d="M 226.304587 100.545226 
L 239.026789 100.545226 
L 239.026789 87.823025 
L 226.304587 87.823025 
z
" clip-path="url(#p6d929d504f)" style="fill: #ebedf0"/>
   </g>
   <g id="patch_112">
    <path d="M 226.304587 114.681006 
L 239.026789 114.681006 
L 239.026789 101.958804 
L 226.304587 101.958804 
z
" clip-path="url(#p6d929d504f)" style="fill: #ebedf0"/>
   </g>
   <g id="patch_113">
    <path d="M 226.304587 128.816786 
L 239.026789 128.816786 
L 239.026789 116.094584 
L 226.304587 116.094584 
z
" clip-path="url(#p6d929d504f)" style="fill: #ebedf0"/>
   </g>
   <g id="patch_114">
    <path d="M 240.440367 44.002107 
L 253.162569 44.002107 
L 253.162569 31.279905 
L 240.440367 31.279905 
z
" clip-path="url(#p6d929d504f)" style="fill: #ebedf0"/>
   </g>
   <g id="patch_115">
    <path d="M 240.440367 58.137887 
L 253.162569 58.137887 
L 253.162569 45.415685 
L 240.440367 45.415685 
z
" clip-path="url(#p6d929d504f)" style="fill: #ebedf0"/>
   </g>
   <g id="patch_116">
    <path d="M 240.440367 72.273667 
L 253.162569 72.273667 
L 253.162569 59.551465 
L 240.440367 59.551465 
z
" clip-path="url(#p6d929d504f)" style="fill: #ebedf0"/>
   </g>
   <g id="patch_117">
    <path d="M 240.440367 86.409447 
L 253.162569 86.409447 
L 253.162569 73.687245 
L 240.440367 73.687245 
z
" clip-path="url(#p6d929d504f)" style="fill: #ebedf0"/>
   </g>
   <g id="patch_118">
    <path d="M 240.440367 100.545226 
L 253.162569 100.545226 
L 253.162569 87.823025 
L 240.440367 87.823025 
z
" clip-path="url(#p6d929d504f)" style="fill: #ebedf0"/>
   </g>
   <g id="patch_119">
    <path d="M 240.440367 114.681006 
L 253.162569 114.681006 
L 253.162569 101.958804 
L 240.440367 101.958804 
z
" clip-path="url(#p6d929d504f)" style="fill: #ebedf0"/>
   </g>
   <g id="patch_120">
    <path d="M 240.440367 128.816786 
L 253.162569 128.816786 
L 253.162569 116.094584 
L 240.440367 116.094584 
z
" clip-path="url(#p6d929d504f)" style="fill: #ebedf0"/>
   </g>
   <g id="patch_121">
    <path d="M 254.576147 44.002107 
L 267.298349 44.002107 
L 267.298349 31.279905 
L 254.576147 31.279905 
z
" clip-path="url(#p6d929d504f)" style="fill: #ebedf0"/>
   </g>
   <g id="patch_122">
    <path d="M 254.576147 58.137887 
L 267.298349 58.137887 
L 267.298349 45.415685 
L 254.576147 45.415685 
z
" clip-path="url(#p6d929d504f)" style="fill: #ebedf0"/>
   </g>
   <g id="patch_123">
    <path d="M 254.576147 72.273667 
L 267.298349 72.273667 
L 267.298349 59.551465 
L 254.576147 59.551465 
z
" clip-path="url(#p6d929d504f)" style="fill: #ebedf0"/>
   </g>
   <g id="patch_124">
    <path d="M 254.576147 86.409447 
L 267.298349 86.409447 
L 267.298349 73.687245 
L 254.576147 73.687245 
z
" clip-path="url(#p6d929d504f)" style="fill: #ebedf0"/>
   </g>
   <g id="patch_125">
    <path d="M 254.576147 100.545226 
L 267.298349 100.545226 
L 267.298349 87.823025 
L 254.576147 87.823025 
z
" clip-path="url(#p6d929d504f)" style="fill: #ebedf0"/>
   </g>
   <g id="patch_126">
    <path d="M 254.576147 114.681006 
L 267.298349 114.681006 
L 267.298349 101.958804 
L 254.576147 101.958804 
z
" clip-path="url(#p6d929d504f)" style="fill: #ebedf0"/>
   </g>
   <g id="patch_127">
    <path d="M 254.576147 128.816786 
L 267.298349 128.816786 
L 267.298349 116.094584 
L 254.576147 116.094584 
z
" clip-path="url(#p6d929d504f)" style="fill: #ebedf0"/>
   </g>
   <g id="patch_128">
    <path d="M 268.711927 44.002107 
L 281.434128 44.002107 
L 281.434128 31.279905 
L 268.711927 31.279905 
z
" clip-path="url(#p6d929d504f)" style="fill: #ebedf0"/>
   </g>
   <g id="patch_129">
    <path d="M 268.711927 58.137887 
L 281.434128 58.137887 
L 281.434128 45.415685 
L 268.711927 45.415685 
z
" clip-path="url(#p6d929d504f)" style="fill: #ebedf0"/>
   </g>
   <g id="patch_130">
    <path d="M 268.711927 72.273667 
L 281.434128 72.273667 
L 281.434128 59.551465 
L 268.711927 59.551465 
z
" clip-path="url(#p6d929d504f)" style="fill: #ebedf0"/>
   </g>
   <g id="patch_131">
    <path d="M 268.711927 86.409447 
L 281.434128 86.409447 
L 281.434128 73.687245 
L 268.711927 73.687245 
z
" clip-path="url(#p6d929d504f)" style="fill: #ebedf0"/>
   </g>
   <g id="patch_132">
    <path d="M 268.711927 100.545226 
L 281.434128 100.545226 
L 281.434128 87.823025 
L 268.711927 87.823025 
z
" clip-path="url(#p6d929d504f)" style="fill: #ebedf0"/>
   </g>
   <g id="patch_133">
    <path d="M 268.711927 114.681006 
L 281.434128 114.681006 
L 281.434128 101.958804 
L 268.711927 101.958804 
z
" clip-path="url(#p6d929d504f)" style="fill: #ebedf0"/>
   </g>
   <g id="patch_134">
    <path d="M 268.711927 128.816786 
L 281.434128 128.816786 
L 281.434128 116.094584 
L 268.711927 116.094584 
z
" clip-path="url(#p6d929d504f)" style="fill: #ebedf0"/>
   </g>
   <g id="patch_135">
    <path d="M 282.847706 44.002107 
L 295.569908 44.002107 
L 295.569908 31.279905 
L 282.847706 31.279905 
z
" clip-path="url(#p6d929d504f)" style="fill: #ebedf0"/>
   </g>
   <g id="patch_136">
    <path d="M 282.847706 58.137887 
L 295.569908 58.137887 
L 295.569908 45.415685 
L 282.847706 45.415685 
z
" clip-path="url(#p6d929d504f)" style="fill: #ebedf0"/>
   </g>
   <g id="patch_137">
    <path d="M 282.847706 72.273667 
L 295.569908 72.273667 
L 295.569908 59.551465 
L 282.847706 59.551465 
z
" clip-path="url(#p6d929d504f)" style="fill: #ebedf0"/>
   </g>
   <g id="patch_138">
    <path d="M 282.847706 86.409447 
L 295.569908 86.409447 
L 295.569908 73.687245 
L 282.847706 73.687245 
z
" clip-path="url(#p6d929d504f)" style="fill: #ebedf0"/>
   </g>
   <g id="patch_139">
    <path d="M 282.847706 100.545226 
L 295.569908 100.545226 
L 295.569908 87.823025 
L 282.847706 87.823025 
z
" clip-path="url(#p6d929d504f)" style="fill: #ebedf0"/>
   </g>
   <g id="patch_140">
    <path d="M 282.847706 114.681006 
L 295.569908 114.681006 
L 295.569908 101.958804 
L 282.847706 101.958804 
z
" clip-path="url(#p6d929d504f)" style="fill: #ebedf0"/>
   </g>
   <g id="patch_141">
    <path d="M 282.847706 128.816786 
L 295.569908 128.816786 
L 295.569908 116.094584 
L 282.847706 116.094584 
z
" clip-path="url(#p6d929d504f)" style="fill: #ebedf0"/>
   </g>
   <g id="patch_142">
    <path d="M 296.983486 44.002107 
L 309.705688 44.002107 
L 309.705688 31.279905 
L 296.983486 31.279905 
z
" clip-path="url(#p6d929d504f)" style="fill: #ebedf0"/>
   </g>
   <g id="patch_143">
    <path d="M 296.983486 58.137887 
L 309.705688 58.137887 
L 309.705688 45.415685 
L 296.983486 45.415685 
z
" clip-path="url(#p6d929d504f)" style="fill: #ebedf0"/>
   </g>
   <g id="patch_144">
    <path d="M 296.983486 72.273667 
L 309.705688 72.273667 
L 309.705688 59.551465 
L 296.983486 59.551465 
z
" clip-path="url(#p6d929d504f)" style="fill: #ebedf0"/>
   </g>
   <g id="patch_145">
    <path d="M 296.983486 86.409447 
L 309.705688 86.409447 
L 309.705688 73.687245 
L 296.983486 73.687245 
z
" clip-path="url(#p6d929d504f)" style="fill: #ebedf0"/>
   </g>
   <g id="patch_146">
    <path d="M 296.983486 100.545226 
L 309.705688 100.545226 
L 309.705688 87.823025 
L 296.983486 87.823025 
z
" clip-path="url(#p6d929d504f)" style="fill: #ebedf0"/>
   </g>
   <g id="patch_147">
    <path d="M 296.983486 114.681006 
L 309.705688 114.681006 
L 309.705688 101.958804 
L 296.983486 101.958804 
z
" clip-path="url(#p6d929d504f)" style="fill: #ebedf0"/>
   </g>
   <g id="patch_148">
    <path d="M 296.983486 128.816786 
L 309.705688 128.816786 
L 309.705688 116.094584 
L 296.983486 116.094584 
z
" clip-path="url(#p6d929d504f)" style="fill: #ebedf0"/>
   </g>
   <g id="patch_149">
    <path d="M 311.119266 44.002107 
L 323.841468 44.002107 
L 323.841468 31.279905 
L 311.119266 31.279905 
z
" clip-path="url(#p6d929d504f)" style="fill: #ebedf0"/>
   </g>
   <g id="patch_150">
    <path d="M 311.119266 58.137887 
L 323.841468 58.137887 
L 323.841468 45.415685 
L 311.119266 45.415685 
z
" clip-path="url(#p6d929d504f)" style="fill: #ebedf0"/>
   </g>
   <g id="patch_151">
    <path d="M 311.119266 72.273667 
L 323.841468 72.273667 
L 323.841468 59.551465 
L 311.119266 59.551465 
z
" clip-path="url(#p6d929d504f)" style="fill: #ebedf0"/>
   </g>
   <g id="patch_152">
    <path d="M 311.119266 86.409447 
L 323.841468 86.409447 
L 323.841468 73.687245 
L 311.119266 73.687245 
z
" clip-path="url(#p6d929d504f)" style="fill: #ebedf0"/>
   </g>
   <g id="patch_153">
    <path d="M 311.119266 100.545226 
L 323.841468 100.545226 
L 323.841468 87.823025 
L 311.119266 87.823025 
z
" clip-path="url(#p6d929d504f)" style="fill: #ebedf0"/>
   </g>
   <g id="patch_154">
    <path d="M 311.119266 114.681006 
L 323.841468 114.681006 
L 323.841468 101.958804 
L 311.119266 101.958804 
z
" clip-path="url(#p6d929d504f)" style="fill: #ebedf0"/>
   </g>
   <g id="patch_155">
    <path d="M 311.119266 128.816786 
L 323.841468 128.816786 
L 323.841468 116.094584 
L 311.119266 116.094584 
z
" clip-path="url(#p6d929d504f)" style="fill: #ebedf0"/>
   </g>
   <g id="patch_156">
    <path d="M 325.255046 44.002107 
L 337.977248 44.002107 
L 337.977248 31.279905 
L 325.255046 31.279905 
z
" clip-path="url(#p6d929d504f)" style="fill: #ebedf0"/>
   </g>
   <g id="patch_157">
    <path d="M 325.255046 58.137887 
L 337.977248 58.137887 
L 337.977248 45.415685 
L 325.255046 45.415685 
z
" clip-path="url(#p6d929d504f)" style="fill: #ebedf0"/>
   </g>
   <g id="patch_158">
    <path d="M 325.255046 72.273667 
L 337.977248 72.273667 
L 337.977248 59.551465 
L 325.255046 59.551465 
z
" clip-path="url(#p6d929d504f)" style="fill: #ebedf0"/>
   </g>
   <g id="patch_159">
    <path d="M 325.255046 86.409447 
L 337.977248 86.409447 
L 337.977248 73.687245 
L 325.255046 73.687245 
z
" clip-path="url(#p6d929d504f)" style="fill: #ebedf0"/>
   </g>
   <g id="patch_160">
    <path d="M 325.255046 100.545226 
L 337.977248 100.545226 
L 337.977248 87.823025 
L 325.255046 87.823025 
z
" clip-path="url(#p6d929d504f)" style="fill: #ebedf0"/>
   </g>
   <g id="patch_161">
    <path d="M 325.255046 114.681006 
L 337.977248 114.681006 
L 337.977248 101.958804 
L 325.255046 101.958804 
z
" clip-path="url(#p6d929d504f)" style="fill: #ebedf0"/>
   </g>
   <g id="patch_162">
    <path d="M 325.255046 128.816786 
L 337.977248 128.816786 
L 337.977248 116.094584 
L 325.255046 116.094584 
z
" clip-path="url(#p6d929d504f)" style="fill: #ebedf0"/>
   </g>
   <g id="patch_163">
    <path d="M 339.390826 44.002107 
L 352.113028 44.002107 
L 352.113028 31.279905 
L 339.390826 31.279905 
z
" clip-path="url(#p6d929d504f)" style="fill: #ebedf0"/>
   </g>
   <g id="patch_164">
    <path d="M 339.390826 58.137887 
L 352.113028 58.137887 
L 352.113028 45.415685 
L 339.390826 45.415685 
z
" clip-path="url(#p6d929d504f)" style="fill: #ebedf0"/>
   </g>
   <g id="patch_165">
    <path d="M 339.390826 72.273667 
L 352.113028 72.273667 
L 352.113028 59.551465 
L 339.390826 59.551465 
z
" clip-path="url(#p6d929d504f)" style="fill: #ebedf0"/>
   </g>
   <g id="patch_166">
    <path d="M 339.390826 86.409447 
L 352.113028 86.409447 
L 352.113028 73.687245 
L 339.390826 73.687245 
z
" clip-path="url(#p6d929d504f)" style="fill: #ebedf0"/>
   </g>
   <g id="patch_167">
    <path d="M 339.390826 100.545226 
L 352.113028 100.545226 
L 352.113028 87.823025 
L 339.390826 87.823025 
z
" clip-path="url(#p6d929d504f)" style="fill: #ebedf0"/>
   </g>
   <g id="patch_168">
    <path d="M 339.390826 114.681006 
L 352.113028 114.681006 
L 352.113028 101.958804 
L 339.390826 101.958804 
z
" clip-path="url(#p6d929d504f)" style="fill: #ebedf0"/>
   </g>
   <g id="patch_169">
    <path d="M 339.390826 128.816786 
L 352.113028 128.816786 
L 352.113028 116.094584 
L 339.390826 116.094584 
z
" clip-path="url(#p6d929d504f)" style="fill: #ebedf0"/>
   </g>
   <g id="patch_170">
    <path d="M 353.526606 44.002107 
L 366.248807 44.002107 
L 366.248807 31.279905 
L 353.526606 31.279905 
z
" clip-path="url(#p6d929d504f)" style="fill: #ebedf0"/>
   </g>
   <g id="patch_171">
    <path d="M 353.526606 58.137887 
L 366.248807 58.137887 
L 366.248807 45.415685 
L 353.526606 45.415685 
z
" clip-path="url(#p6d929d504f)" style="fill: #ebedf0"/>
   </g>
   <g id="patch_172">
    <path d="M 353.526606 72.273667 
L 366.248807 72.273667 
L 366.248807 59.551465 
L 353.526606 59.551465 
z
" clip-path="url(#p6d929d504f)" style="fill: #ebedf0"/>
   </g>
   <g id="patch_173">
    <path d="M 353.526606 86.409447 
L 366.248807 86.409447 
L 366.248807 73.687245 
L 353.526606 73.687245 
z
" clip-path="url(#p6d929d504f)" style="fill: #ebedf0"/>
   </g>
   <g id="patch_174">
    <path d="M 353.526606 100.545226 
L 366.248807 100.545226 
L 366.248807 87.823025 
L 353.526606 87.823025 
z
" clip-path="url(#p6d929d504f)" style="fill: #ebedf0"/>
   </g>
   <g id="patch_175">
    <path d="M 353.526606 114.681006 
L 366.248807 114.681006 
L 366.248807 101.958804 
L 353.526606 101.958804 
z
" clip-path="url(#p6d929d504f)" style="fill: #ebedf0"/>
   </g>
   <g id="patch_176">
    <path d="M 353.526606 128.816786 
L 366.248807 128.816786 
L 366.248807 116.094584 
L 353.526606 116.094584 
z
" clip-path="url(#p6d929d504f)" style="fill: #ebedf0"/>
   </g>
   <g id="patch_177">
    <path d="M 367.662385 44.002107 
L 380.384587 44.002107 
L 380.384587 31.279905 
L 367.662385 31.279905 
z
" clip-path="url(#p6d929d504f)" style="fill: #ebedf0"/>
   </g>
   <g id="patch_178">
    <path d="M 367.662385 58.137887 
L 380.384587 58.137887 
L 380.384587 45.415685 
L 367.662385 45.415685 
z
" clip-path="url(#p6d929d504f)" style="fill: #ebedf0"/>
   </g>
   <g id="patch_179">
    <path d="M 367.662385 72.273667 
L 380.384587 72.273667 
L 380.384587 59.551465 
L 367.662385 59.551465 
z
" clip-path="url(#p6d929d504f)" style="fill: #ebedf0"/>
   </g>
   <g id="patch_180">
    <path d="M 367.662385 86.409447 
L 380.384587 86.409447 
L 380.384587 73.687245 
L 367.662385 73.687245 
z
" clip-path="url(#p6d929d504f)" style="fill: #ebedf0"/>
   </g>
   <g id="patch_181">
    <path d="M 367.662385 100.545226 
L 380.384587 100.545226 
L 380.384587 87.823025 
L 367.662385 87.823025 
z
" clip-path="url(#p6d929d504f)" style="fill: #ebedf0"/>
   </g>
   <g id="patch_182">
    <path d="M 367.662385 114.681006 
L 380.384587 114.681006 
L 380.384587 101.958804 
L 367.662385 101.958804 
z
" clip-path="url(#p6d929d504f)" style="fill: #ebedf0"/>
   </g>
   <g id="patch_183">
    <path d="M 367.662385 128.816786 
L 380.384587 128.816786 
L 380.384587 116.094584 
L 367.662385 116.094584 
z
" clip-path="url(#p6d929d504f)" style="fill: #ebedf0"/>
   </g>
   <g id="patch_184">
    <path d="M 381.798165 44.002107 
L 394.520367 44.002107 
L 394.520367 31.279905 
L 381.798165 31.279905 
z
" clip-path="url(#p6d929d504f)" style="fill: #ebedf0"/>
   </g>
   <g id="patch_185">
    <path d="M 381.798165 58.137887 
L 394.520367 58.137887 
L 394.520367 45.415685 
L 381.798165 45.415685 
z
" clip-path="url(#p6d929d504f)" style="fill: #ebedf0"/>
   </g>
   <g id="patch_186">
    <path d="M 381.798165 72.273667 
L 394.520367 72.273667 
L 394.520367 59.551465 
L 381.798165 59.551465 
z
" clip-path="url(#p6d929d504f)" style="fill: #ebedf0"/>
   </g>
   <g id="patch_187">
    <path d="M 381.798165 86.409447 
L 394.520367 86.409447 
L 394.520367 73.687245 
L 381.798165 73.687245 
z
" clip-path="url(#p6d929d504f)" style="fill: #ebedf0"/>
   </g>
   <g id="patch_188">
    <path d="M 381.798165 100.545226 
L 394.520367 100.545226 
L 394.520367 87.823025 
L 381.798165 87.823025 
z
" clip-path="url(#p6d929d504f)" style="fill: #ebedf0"/>
   </g>
   <g id="patch_189">
    <path d="M 381.798165 114.681006 
L 394.520367 114.681006 
L 394.520367 101.958804 
L 381.798165 101.958804 
z
" clip-path="url(#p6d929d504f)" style="fill: #ebedf0"/>
   </g>
   <g id="patch_190">
    <path d="M 381.798165 128.816786 
L 394.520367 128.816786 
L 394.520367 116.094584 
L 381.798165 116.094584 
z
" clip-path="url(#p6d929d504f)" style="fill: #ebedf0"/>
   </g>
   <g id="patch_191">
    <path d="M 395.933945 44.002107 
L 408.656147 44.002107 
L 408.656147 31.279905 
L 395.933945 31.279905 
z
" clip-path="url(#p6d929d504f)" style="fill: #ebedf0"/>
   </g>
   <g id="patch_192">
    <path d="M 395.933945 58.137887 
L 408.656147 58.137887 
L 408.656147 45.415685 
L 395.933945 45.415685 
z
" clip-path="url(#p6d929d504f)" style="fill: #ebedf0"/>
   </g>
   <g id="patch_193">
    <path d="M 395.933945 72.273667 
L 408.656147 72.273667 
L 408.656147 59.551465 
L 395.933945 59.551465 
z
" clip-path="url(#p6d929d504f)" style="fill: #ebedf0"/>
   </g>
   <g id="patch_194">
    <path d="M 395.933945 86.409447 
L 408.656147 86.409447 
L 408.656147 73.687245 
L 395.933945 73.687245 
z
" clip-path="url(#p6d929d504f)" style="fill: #ebedf0"/>
   </g>
   <g id="patch_195">
    <path d="M 395.933945 100.545226 
L 408.656147 100.545226 
L 408.656147 87.823025 
L 395.933945 87.823025 
z
" clip-path="url(#p6d929d504f)" style="fill: #ebedf0"/>
   </g>
   <g id="patch_196">
    <path d="M 395.933945 114.681006 
L 408.656147 114.681006 
L 408.656147 101.958804 
L 395.933945 101.958804 
z
" clip-path="url(#p6d929d504f)" style="fill: #ebedf0"/>
   </g>
   <g id="patch_197">
    <path d="M 395.933945 128.816786 
L 408.656147 128.816786 
L 408.656147 116.094584 
L 395.933945 116.094584 
z
" clip-path="url(#p6d929d504f)" style="fill: #ebedf0"/>
   </g>
   <g id="patch_198">
    <path d="M 410.069725 44.002107 
L 422.791927 44.002107 
L 422.791927 31.279905 
L 410.069725 31.279905 
z
" clip-path="url(#p6d929d504f)" style="fill: #ebedf0"/>
   </g>
   <g id="patch_199">
    <path d="M 410.069725 58.137887 
L 422.791927 58.137887 
L 422.791927 45.415685 
L 410.069725 45.415685 
z
" clip-path="url(#p6d929d504f)" style="fill: #ebedf0"/>
   </g>
   <g id="patch_200">
    <path d="M 410.069725 72.273667 
L 422.791927 72.273667 
L 422.791927 59.551465 
L 410.069725 59.551465 
z
" clip-path="url(#p6d929d504f)" style="fill: #ebedf0"/>
   </g>
   <g id="patch_201">
    <path d="M 410.069725 86.409447 
L 422.791927 86.409447 
L 422.791927 73.687245 
L 410.069725 73.687245 
z
" clip-path="url(#p6d929d504f)" style="fill: #ebedf0"/>
   </g>
   <g id="patch_202">
    <path d="M 410.069725 100.545226 
L 422.791927 100.545226 
L 422.791927 87.823025 
L 410.069725 87.823025 
z
" clip-path="url(#p6d929d504f)" style="fill: #ebedf0"/>
   </g>
   <g id="patch_203">
    <path d="M 410.069725 114.681006 
L 422.791927 114.681006 
L 422.791927 101.958804 
L 410.069725 101.958804 
z
" clip-path="url(#p6d929d504f)" style="fill: #ebedf0"/>
   </g>
   <g id="patch_204">
    <path d="M 410.069725 128.816786 
L 422.791927 128.816786 
L 422.791927 116.094584 
L 410.069725 116.094584 
z
" clip-path="url(#p6d929d504f)" style="fill: #ebedf0"/>
   </g>
   <g id="patch_205">
    <path d="M 424.205505 44.002107 
L 436.927706 44.002107 
L 436.927706 31.279905 
L 424.205505 31.279905 
z
" clip-path="url(#p6d929d504f)" style="fill: #ebedf0"/>
   </g>
   <g id="patch_206">
    <path d="M 424.205505 58.137887 
L 436.927706 58.137887 
L 436.927706 45.415685 
L 424.205505 45.415685 
z
" clip-path="url(#p6d929d504f)" style="fill: #ebedf0"/>
   </g>
   <g id="patch_207">
    <path d="M 424.205505 72.273667 
L 436.927706 72.273667 
L 436.927706 59.551465 
L 424.205505 59.551465 
z
" clip-path="url(#p6d929d504f)" style="fill: #ebedf0"/>
   </g>
   <g id="patch_208">
    <path d="M 424.205505 86.409447 
L 436.927706 86.409447 
L 436.927706 73.687245 
L 424.205505 73.687245 
z
" clip-path="url(#p6d929d504f)" style="fill: #ebedf0"/>
   </g>
   <g id="patch_209">
    <path d="M 424.205505 100.545226 
L 436.927706 100.545226 
L 436.927706 87.823025 
L 424.205505 87.823025 
z
" clip-path="url(#p6d929d504f)" style="fill: #ebedf0"/>
   </g>
   <g id="patch_210">
    <path d="M 424.205505 114.681006 
L 436.927706 114.681006 
L 436.927706 101.958804 
L 424.205505 101.958804 
z
" clip-path="url(#p6d929d504f)" style="fill: #ebedf0"/>
   </g>
   <g id="patch_211">
    <path d="M 424.205505 128.816786 
L 436.927706 128.816786 
L 436.927706 116.094584 
L 424.205505 116.094584 
z
" clip-path="url(#p6d929d504f)" style="fill: #ebedf0"/>
   </g>
   <g id="patch_212">
    <path d="M 438.341284 44.002107 
L 451.063486 44.002107 
L 451.063486 31.279905 
L 438.341284 31.279905 
z
" clip-path="url(#p6d929d504f)" style="fill: #ebedf0"/>
   </g>
   <g id="patch_213">
    <path d="M 438.341284 58.137887 
L 451.063486 58.137887 
L 451.063486 45.415685 
L 438.341284 45.415685 
z
" clip-path="url(#p6d929d504f)" style="fill: #ebedf0"/>
   </g>
   <g id="patch_214">
    <path d="M 438.341284 72.273667 
L 451.063486 72.273667 
L 451.063486 59.551465 
L 438.341284 59.551465 
z
" clip-path="url(#p6d929d504f)" style="fill: #ebedf0"/>
   </g>
   <g id="patch_215">
    <path d="M 438.341284 86.409447 
L 451.063486 86.409447 
L 451.063486 73.687245 
L 438.341284 73.687245 
z
" clip-path="url(#p6d929d504f)" style="fill: #ebedf0"/>
   </g>
   <g id="patch_216">
    <path d="M 438.341284 100.545226 
L 451.063486 100.545226 
L 451.063486 87.823025 
L 438.341284 87.823025 
z
" clip-path="url(#p6d929d504f)" style="fill: #ebedf0"/>
   </g>
   <g id="patch_217">
    <path d="M 438.341284 114.681006 
L 451.063486 114.681006 
L 451.063486 101.958804 
L 438.341284 101.958804 
z
" clip-path="url(#p6d929d504f)" style="fill: #ebedf0"/>
   </g>
   <g id="patch_218">
    <path d="M 438.341284 128.816786 
L 451.063486 128.816786 
L 451.063486 116.094584 
L 438.341284 116.094584 
z
" clip-path="url(#p6d929d504f)" style="fill: #ebedf0"/>
   </g>
   <g id="patch_219">
    <path d="M 452.477064 44.002107 
L 465.199266 44.002107 
L 465.199266 31.279905 
L 452.477064 31.279905 
z
" clip-path="url(#p6d929d504f)" style="fill: #ebedf0"/>
   </g>
   <g id="patch_220">
    <path d="M 452.477064 58.137887 
L 465.199266 58.137887 
L 465.199266 45.415685 
L 452.477064 45.415685 
z
" clip-path="url(#p6d929d504f)" style="fill: #ebedf0"/>
   </g>
   <g id="patch_221">
    <path d="M 452.477064 72.273667 
L 465.199266 72.273667 
L 465.199266 59.551465 
L 452.477064 59.551465 
z
" clip-path="url(#p6d929d504f)" style="fill: #ebedf0"/>
   </g>
   <g id="patch_222">
    <path d="M 452.477064 86.409447 
L 465.199266 86.409447 
L 465.199266 73.687245 
L 452.477064 73.687245 
z
" clip-path="url(#p6d929d504f)" style="fill: #ebedf0"/>
   </g>
   <g id="patch_223">
    <path d="M 452.477064 100.545226 
L 465.199266 100.545226 
L 465.199266 87.823025 
L 452.477064 87.823025 
z
" clip-path="url(#p6d929d504f)" style="fill: #ebedf0"/>
   </g>
   <g id="patch_224">
    <path d="M 452.477064 114.681006 
L 465.199266 114.681006 
L 465.199266 101.958804 
L 452.477064 101.958804 
z
" clip-path="url(#p6d929d504f)" style="fill: #ebedf0"/>
   </g>
   <g id="patch_225">
    <path d="M 452.477064 128.816786 
L 465.199266 128.816786 
L 465.199266 116.094584 
L 452.477064 116.094584 
z
" clip-path="url(#p6d929d504f)" style="fill: #ebedf0"/>
   </g>
   <g id="patch_226">
    <path d="M 466.612844 44.002107 
L 479.335046 44.002107 
L 479.335046 31.279905 
L 466.612844 31.279905 
z
" clip-path="url(#p6d929d504f)" style="fill: #ebedf0"/>
   </g>
   <g id="patch_227">
    <path d="M 466.612844 58.137887 
L 479.335046 58.137887 
L 479.335046 45.415685 
L 466.612844 45.415685 
z
" clip-path="url(#p6d929d504f)" style="fill: #ebedf0"/>
   </g>
   <g id="patch_228">
    <path d="M 466.612844 72.273667 
L 479.335046 72.273667 
L 479.335046 59.551465 
L 466.612844 59.551465 
z
" clip-path="url(#p6d929d504f)" style="fill: #ebedf0"/>
   </g>
   <g id="patch_229">
    <path d="M 466.612844 86.409447 
L 479.335046 86.409447 
L 479.335046 73.687245 
L 466.612844 73.687245 
z
" clip-path="url(#p6d929d504f)" style="fill: #ebedf0"/>
   </g>
   <g id="patch_230">
    <path d="M 466.612844 100.545226 
L 479.335046 100.545226 
L 479.335046 87.823025 
L 466.612844 87.823025 
z
" clip-path="url(#p6d929d504f)" style="fill: #ebedf0"/>
   </g>
   <g id="patch_231">
    <path d="M 466.612844 114.681006 
L 479.335046 114.681006 
L 479.335046 101.958804 
L 466.612844 101.958804 
z
" clip-path="url(#p6d929d504f)" style="fill: #ebedf0"/>
   </g>
   <g id="patch_232">
    <path d="M 466.612844 128.816786 
L 479.335046 128.816786 
L 479.335046 116.094584 
L 466.612844 116.094584 
z
" clip-path="url(#p6d929d504f)" style="fill: #ebedf0"/>
   </g>
   <g id="patch_233">
    <path d="M 480.748624 44.002107 
L 493.470826 44.002107 
L 493.470826 31.279905 
L 480.748624 31.279905 
z
" clip-path="url(#p6d929d504f)" style="fill: #ebedf0"/>
   </g>
   <g id="patch_234">
    <path d="M 480.748624 58.137887 
L 493.470826 58.137887 
L 493.470826 45.415685 
L 480.748624 45.415685 
z
" clip-path="url(#p6d929d504f)" style="fill: #ebedf0"/>
   </g>
   <g id="patch_235">
    <path d="M 480.748624 72.273667 
L 493.470826 72.273667 
L 493.470826 59.551465 
L 480.748624 59.551465 
z
" clip-path="url(#p6d929d504f)" style="fill: #ebedf0"/>
   </g>
   <g id="patch_236">
    <path d="M 480.748624 86.409447 
L 493.470826 86.409447 
L 493.470826 73.687245 
L 480.748624 73.687245 
z
" clip-path="url(#p6d929d504f)" style="fill: #ebedf0"/>
   </g>
   <g id="patch_237">
    <path d="M 480.748624 100.545226 
L 493.470826 100.545226 
L 493.470826 87.823025 
L 480.748624 87.823025 
z
" clip-path="url(#p6d929d504f)" style="fill: #ebedf0"/>
   </g>
   <g id="patch_238">
    <path d="M 480.748624 114.681006 
L 493.470826 114.681006 
L 493.470826 101.958804 
L 480.748624 101.958804 
z
" clip-path="url(#p6d929d504f)" style="fill: #ebedf0"/>
   </g>
   <g id="patch_239">
    <path d="M 480.748624 128.816786 
L 493.470826 128.816786 
L 493.470826 116.094584 
L 480.748624 116.094584 
z
" clip-path="url(#p6d929d504f)" style="fill: #ebedf0"/>
   </g>
   <g id="patch_240">
    <path d="M 494.884404 44.002107 
L 507.606606 44.002107 
L 507.606606 31.279905 
L 494.884404 31.279905 
z
" clip-path="url(#p6d929d504f)" style="fill: #ebedf0"/>
   </g>
   <g id="patch_241">
    <path d="M 494.884404 58.137887 
L 507.606606 58.137887 
L 507.606606 45.415685 
L 494.884404 45.415685 
z
" clip-path="url(#p6d929d504f)" style="fill: #ebedf0"/>
   </g>
   <g id="patch_242">
    <path d="M 494.884404 72.273667 
L 507.606606 72.273667 
L 507.606606 59.551465 
L 494.884404 59.551465 
z
" clip-path="url(#p6d929d504f)" style="fill: #ebedf0"/>
   </g>
   <g id="patch_243">
    <path d="M 494.884404 86.409447 
L 507.606606 86.409447 
L 507.606606 73.687245 
L 494.884404 73.687245 
z
" clip-path="url(#p6d929d504f)" style="fill: #ebedf0"/>
   </g>
   <g id="patch_244">
    <path d="M 494.884404 100.545226 
L 507.606606 100.545226 
L 507.606606 87.823025 
L 494.884404 87.823025 
z
" clip-path="url(#p6d929d504f)" style="fill: #ebedf0"/>
   </g>
   <g id="patch_245">
    <path d="M 494.884404 114.681006 
L 507.606606 114.681006 
L 507.606606 101.958804 
L 494.884404 101.958804 
z
" clip-path="url(#p6d929d504f)" style="fill: #ebedf0"/>
   </g>
   <g id="patch_246">
    <path d="M 494.884404 128.816786 
L 507.606606 128.816786 
L 507.606606 116.094584 
L 494.884404 116.094584 
z
" clip-path="url(#p6d929d504f)" style="fill: #ebedf0"/>
   </g>
   <g id="patch_247">
    <path d="M 509.020183 44.002107 
L 521.742385 44.002107 
L 521.742385 31.279905 
L 509.020183 31.279905 
z
" clip-path="url(#p6d929d504f)" style="fill: #ebedf0"/>
   </g>
   <g id="patch_248">
    <path d="M 509.020183 58.137887 
L 521.742385 58.137887 
L 521.742385 45.415685 
L 509.020183 45.415685 
z
" clip-path="url(#p6d929d504f)" style="fill: #ebedf0"/>
   </g>
   <g id="patch_249">
    <path d="M 509.020183 72.273667 
L 521.742385 72.273667 
L 521.742385 59.551465 
L 509.020183 59.551465 
z
" clip-path="url(#p6d929d504f)" style="fill: #ebedf0"/>
   </g>
   <g id="patch_250">
    <path d="M 509.020183 86.409447 
L 521.742385 86.409447 
L 521.742385 73.687245 
L 509.020183 73.687245 
z
" clip-path="url(#p6d929d504f)" style="fill: #ebedf0"/>
   </g>
   <g id="patch_251">
    <path d="M 509.020183 100.545226 
L 521.742385 100.545226 
L 521.742385 87.823025 
L 509.020183 87.823025 
z
" clip-path="url(#p6d929d504f)" style="fill: #ebedf0"/>
   </g>
   <g id="patch_252">
    <path d="M 509.020183 114.681006 
L 521.742385 114.681006 
L 521.742385 101.958804 
L 509.020183 101.958804 
z
" clip-path="url(#p6d929d504f)" style="fill: #ebedf0"/>
   </g>
   <g id="patch_253">
    <path d="M 509.020183 128.816786 
L 521.742385 128.816786 
L 521.742385 116.094584 
L 509.020183 116.094584 
z
" clip-path="url(#p6d929d504f)" style="fill: #ebedf0"/>
   </g>
   <g id="patch_254">
    <path d="M 523.155963 44.002107 
L 535.878165 44.002107 
L 535.878165 31.279905 
L 523.155963 31.279905 
z
" clip-path="url(#p6d929d504f)" style="fill: #ebedf0"/>
   </g>
   <g id="patch_255">
    <path d="M 523.155963 58.137887 
L 535.878165 58.137887 
L 535.878165 45.415685 
L 523.155963 45.415685 
z
" clip-path="url(#p6d929d504f)" style="fill: #ebedf0"/>
   </g>
   <g id="patch_256">
    <path d="M 523.155963 72.273667 
L 535.878165 72.273667 
L 535.878165 59.551465 
L 523.155963 59.551465 
z
" clip-path="url(#p6d929d504f)" style="fill: #ebedf0"/>
   </g>
   <g id="patch_257">
    <path d="M 523.155963 86.409447 
L 535.878165 86.409447 
L 535.878165 73.687245 
L 523.155963 73.687245 
z
" clip-path="url(#p6d929d504f)" style="fill: #ebedf0"/>
   </g>
   <g id="patch_258">
    <path d="M 523.155963 100.545226 
L 535.878165 100.545226 
L 535.878165 87.823025 
L 523.155963 87.823025 
z
" clip-path="url(#p6d929d504f)" style="fill: #ebedf0"/>
   </g>
   <g id="patch_259">
    <path d="M 523.155963 114.681006 
L 535.878165 114.681006 
L 535.878165 101.958804 
L 523.155963 101.958804 
z
" clip-path="url(#p6d929d504f)" style="fill: #ebedf0"/>
   </g>
   <g id="patch_260">
    <path d="M 523.155963 128.816786 
L 535.878165 128.816786 
L 535.878165 116.094584 
L 523.155963 116.094584 
z
" clip-path="url(#p6d929d504f)" style="fill: #ebedf0"/>
   </g>
   <g id="patch_261">
    <path d="M 537.291743 44.002107 
L 550.013945 44.002107 
L 550.013945 31.279905 
L 537.291743 31.279905 
z
" clip-path="url(#p6d929d504f)" style="fill: #ebedf0"/>
   </g>
   <g id="patch_262">
    <path d="M 537.291743 58.137887 
L 550.013945 58.137887 
L 550.013945 45.415685 
L 537.291743 45.415685 
z
" clip-path="url(#p6d929d504f)" style="fill: #ebedf0"/>
   </g>
   <g id="patch_263">
    <path d="M 537.291743 72.273667 
L 550.013945 72.273667 
L 550.013945 59.551465 
L 537.291743 59.551465 
z
" clip-path="url(#p6d929d504f)" style="fill: #ebedf0"/>
   </g>
   <g id="patch_264">
    <path d="M 537.291743 86.409447 
L 550.013945 86.409447 
L 550.013945 73.687245 
L 537.291743 73.687245 
z
" clip-path="url(#p6d929d504f)" style="fill: #ebedf0"/>
   </g>
   <g id="patch_265">
    <path d="M 537.291743 100.545226 
L 550.013945 100.545226 
L 550.013945 87.823025 
L 537.291743 87.823025 
z
" clip-path="url(#p6d929d504f)" style="fill: #ebedf0"/>
   </g>
   <g id="patch_266">
    <path d="M 537.291743 114.681006 
L 550.013945 114.681006 
L 550.013945 101.958804 
L 537.291743 101.958804 
z
" clip-path="url(#p6d929d504f)" style="fill: #ebedf0"/>
   </g>
   <g id="patch_267">
    <path d="M 537.291743 128.816786 
L 550.013945 128.816786 
L 550.013945 116.094584 
L 537.291743 116.094584 
z
" clip-path="url(#p6d929d504f)" style="fill: #ebedf0"/>
   </g>
   <g id="patch_268">
    <path d="M 551.427523 44.002107 
L 564.149725 44.002107 
L 564.149725 31.279905 
L 551.427523 31.279905 
z
" clip-path="url(#p6d929d504f)" style="fill: #ebedf0"/>
   </g>
   <g id="patch_269">
    <path d="M 551.427523 58.137887 
L 564.149725 58.137887 
L 564.149725 45.415685 
L 551.427523 45.415685 
z
" clip-path="url(#p6d929d504f)" style="fill: #ebedf0"/>
   </g>
   <g id="patch_270">
    <path d="M 551.427523 72.273667 
L 564.149725 72.273667 
L 564.149725 59.551465 
L 551.427523 59.551465 
z
" clip-path="url(#p6d929d504f)" style="fill: #ebedf0"/>
   </g>
   <g id="patch_271">
    <path d="M 551.427523 86.409447 
L 564.149725 86.409447 
L 564.149725 73.687245 
L 551.427523 73.687245 
z
" clip-path="url(#p6d929d504f)" style="fill: #ebedf0"/>
   </g>
   <g id="patch_272">
    <path d="M 551.427523 100.545226 
L 564.149725 100.545226 
L 564.149725 87.823025 
L 551.427523 87.823025 
z
" clip-path="url(#p6d929d504f)" style="fill: #ebedf0"/>
   </g>
   <g id="patch_273">
    <path d="M 551.427523 114.681006 
L 564.149725 114.681006 
L 564.149725 101.958804 
L 551.427523 101.958804 
z
" clip-path="url(#p6d929d504f)" style="fill: #ebedf0"/>
   </g>
   <g id="patch_274">
    <path d="M 551.427523 128.816786 
L 564.149725 128.816786 
L 564.149725 116.094584 
L 551.427523 116.094584 
z
" clip-path="url(#p6d929d504f)" style="fill: #ebedf0"/>
   </g>
   <g id="patch_275">
    <path d="M 565.563303 44.002107 
L 578.285505 44.002107 
L 578.285505 31.279905 
L 565.563303 31.279905 
z
" clip-path="url(#p6d929d504f)" style="fill: #ebedf0"/>
   </g>
   <g id="patch_276">
    <path d="M 565.563303 58.137887 
L 578.285505 58.137887 
L 578.285505 45.415685 
L 565.563303 45.415685 
z
" clip-path="url(#p6d929d504f)" style="fill: #ebedf0"/>
   </g>
   <g id="patch_277">
    <path d="M 565.563303 72.273667 
L 578.285505 72.273667 
L 578.285505 59.551465 
L 565.563303 59.551465 
z
" clip-path="url(#p6d929d504f)" style="fill: #ebedf0"/>
   </g>
   <g id="patch_278">
    <path d="M 565.563303 86.409447 
L 578.285505 86.409447 
L 578.285505 73.687245 
L 565.563303 73.687245 
z
" clip-path="url(#p6d929d504f)" style="fill: #ebedf0"/>
   </g>
   <g id="patch_279">
    <path d="M 565.563303 100.545226 
L 578.285505 100.545226 
L 578.285505 87.823025 
L 565.563303 87.823025 
z
" clip-path="url(#p6d929d504f)" style="fill: #ebedf0"/>
   </g>
   <g id="patch_280">
    <path d="M 565.563303 114.681006 
L 578.285505 114.681006 
L 578.285505 101.958804 
L 565.563303 101.958804 
z
" clip-path="url(#p6d929d504f)" style="fill: #ebedf0"/>
   </g>
   <g id="patch_281">
    <path d="M 565.563303 128.816786 
L 578.285505 128.816786 
L 578.285505 116.094584 
L 565.563303 116.094584 
z
" clip-path="url(#p6d929d504f)" style="fill: #ebedf0"/>
   </g>
   <g id="patch_282">
    <path d="M 579.699083 44.002107 
L 592.421284 44.002107 
L 592.421284 31.279905 
L 579.699083 31.279905 
z
" clip-path="url(#p6d929d504f)" style="fill: #ebedf0"/>
   </g>
   <g id="patch_283">
    <path d="M 579.699083 58.137887 
L 592.421284 58.137887 
L 592.421284 45.415685 
L 579.699083 45.415685 
z
" clip-path="url(#p6d929d504f)" style="fill: #ebedf0"/>
   </g>
   <g id="patch_284">
    <path d="M 579.699083 72.273667 
L 592.421284 72.273667 
L 592.421284 59.551465 
L 579.699083 59.551465 
z
" clip-path="url(#p6d929d504f)" style="fill: #ebedf0"/>
   </g>
   <g id="patch_285">
    <path d="M 579.699083 86.409447 
L 592.421284 86.409447 
L 592.421284 73.687245 
L 579.699083 73.687245 
z
" clip-path="url(#p6d929d504f)" style="fill: #ebedf0"/>
   </g>
   <g id="patch_286">
    <path d="M 579.699083 100.545226 
L 592.421284 100.545226 
L 592.421284 87.823025 
L 579.699083 87.823025 
z
" clip-path="url(#p6d929d504f)" style="fill: #ebedf0"/>
   </g>
   <g id="patch_287">
    <path d="M 579.699083 114.681006 
L 592.421284 114.681006 
L 592.421284 101.958804 
L 579.699083 101.958804 
z
" clip-path="url(#p6d929d504f)" style="fill: #ebedf0"/>
   </g>
   <g id="patch_288">
    <path d="M 579.699083 128.816786 
L 592.421284 128.816786 
L 592.421284 116.094584 
L 579.699083 116.094584 
z
" clip-path="url(#p6d929d504f)" style="fill: #ebedf0"/>
   </g>
   <g id="patch_289">
    <path d="M 593.834862 44.002107 
L 606.557064 44.002107 
L 606.557064 31.279905 
L 593.834862 31.279905 
z
" clip-path="url(#p6d929d504f)" style="fill: #ebedf0"/>
   </g>
   <g id="patch_290">
    <path d="M 593.834862 58.137887 
L 606.557064 58.137887 
L 606.557064 45.415685 
L 593.834862 45.415685 
z
" clip-path="url(#p6d929d504f)" style="fill: #ebedf0"/>
   </g>
   <g id="patch_291">
    <path d="M 593.834862 72.273667 
L 606.557064 72.273667 
L 606.557064 59.551465 
L 593.834862 59.551465 
z
" clip-path="url(#p6d929d504f)" style="fill: #ebedf0"/>
   </g>
   <g id="patch_292">
    <path d="M 593.834862 86.409447 
L 606.557064 86.409447 
L 606.557064 73.687245 
L 593.834862 73.687245 
z
" clip-path="url(#p6d929d504f)" style="fill: #ebedf0"/>
   </g>
   <g id="patch_293">
    <path d="M 593.834862 100.545226 
L 606.557064 100.545226 
L 606.557064 87.823025 
L 593.834862 87.823025 
z
" clip-path="url(#p6d929d504f)" style="fill: #ebedf0"/>
   </g>
   <g id="patch_294">
    <path d="M 593.834862 114.681006 
L 606.557064 114.681006 
L 606.557064 101.958804 
L 593.834862 101.958804 
z
" clip-path="url(#p6d929d504f)" style="fill: #ebedf0"/>
   </g>
   <g id="patch_295">
    <path d="M 593.834862 128.816786 
L 606.557064 128.816786 
L 606.557064 116.094584 
L 593.834862 116.094584 
z
" clip-path="url(#p6d929d504f)" style="fill: #ebedf0"/>
   </g>
   <g id="patch_296">
    <path d="M 607.970642 44.002107 
L 620.692844 44.002107 
L 620.692844 31.279905 
L 607.970642 31.279905 
z
" clip-path="url(#p6d929d504f)" style="fill: #ebedf0"/>
   </g>
   <g id="patch_297">
    <path d="M 607.970642 58.137887 
L 620.692844 58.137887 
L 620.692844 45.415685 
L 607.970642 45.415685 
z
" clip-path="url(#p6d929d504f)" style="fill: #ebedf0"/>
   </g>
   <g id="patch_298">
    <path d="M 607.970642 72.273667 
L 620.692844 72.273667 
L 620.692844 59.551465 
L 607.970642 59.551465 
z
" clip-path="url(#p6d929d504f)" style="fill: #ebedf0"/>
   </g>
   <g id="patch_299">
    <path d="M 607.970642 86.409447 
L 620.692844 86.409447 
L 620.692844 73.687245 
L 607.970642 73.687245 
z
" clip-path="url(#p6d929d504f)" style="fill: #ebedf0"/>
   </g>
   <g id="patch_300">
    <path d="M 607.970642 100.545226 
L 620.692844 100.545226 
L 620.692844 87.823025 
L 607.970642 87.823025 
z
" clip-path="url(#p6d929d504f)" style="fill: #ebedf0"/>
   </g>
   <g id="patch_301">
    <path d="M 607.970642 114.681006 
L 620.692844 114.681006 
L 620.692844 101.958804 
L 607.970642 101.958804 
z
" clip-path="url(#p6d929d504f)" style="fill: #ebedf0"/>
   </g>
   <g id="patch_302">
    <path d="M 607.970642 128.816786 
L 620.692844 128.816786 
L 620.692844 116.094584 
L 607.970642 116.094584 
z
" clip-path="url(#p6d929d504f)" style="fill: #ebedf0"/>
   </g>
   <g id="patch_303">
    <path d="M 622.106422 44.002107 
L 634.828624 44.002107 
L 634.828624 31.279905 
L 622.106422 31.279905 
z
" clip-path="url(#p6d929d504f)" style="fill: #ebedf0"/>
   </g>
   <g id="patch_304">
    <path d="M 622.106422 58.137887 
L 634.828624 58.137887 
L 634.828624 45.415685 
L 622.106422 45.415685 
z
" clip-path="url(#p6d929d504f)" style="fill: #ebedf0"/>
   </g>
   <g id="patch_305">
    <path d="M 622.106422 72.273667 
L 634.828624 72.273667 
L 634.828624 59.551465 
L 622.106422 59.551465 
z
" clip-path="url(#p6d929d504f)" style="fill: #ebedf0"/>
   </g>
   <g id="patch_306">
    <path d="M 622.106422 86.409447 
L 634.828624 86.409447 
L 634.828624 73.687245 
L 622.106422 73.687245 
z
" clip-path="url(#p6d929d504f)" style="fill: #ebedf0"/>
   </g>
   <g id="patch_307">
    <path d="M 622.106422 100.545226 
L 634.828624 100.545226 
L 634.828624 87.823025 
L 622.106422 87.823025 
z
" clip-path="url(#p6d929d504f)" style="fill: #ebedf0"/>
   </g>
   <g id="patch_308">
    <path d="M 622.106422 114.681006 
L 634.828624 114.681006 
L 634.828624 101.958804 
L 622.106422 101.958804 
z
" clip-path="url(#p6d929d504f)" style="fill: #ebedf0"/>
   </g>
   <g id="patch_309">
    <path d="M 622.106422 128.816786 
L 634.828624 128.816786 
L 634.828624 116.094584 
L 622.106422 116.094584 
z
" clip-path="url(#p6d929d504f)" style="fill: #ebedf0"/>
   </g>
   <g id="patch_310">
    <path d="M 636.242202 44.002107 
L 648.964404 44.002107 
L 648.964404 31.279905 
L 636.242202 31.279905 
z
" clip-path="url(#p6d929d504f)" style="fill: #ebedf0"/>
   </g>
   <g id="patch_311">
    <path d="M 636.242202 58.137887 
L 648.964404 58.137887 
L 648.964404 45.415685 
L 636.242202 45.415685 
z
" clip-path="url(#p6d929d504f)" style="fill: #ebedf0"/>
   </g>
   <g id="patch_312">
    <path d="M 636.242202 72.273667 
L 648.964404 72.273667 
L 648.964404 59.551465 
L 636.242202 59.551465 
z
" clip-path="url(#p6d929d504f)" style="fill: #ebedf0"/>
   </g>
   <g id="patch_313">
    <path d="M 636.242202 86.409447 
L 648.964404 86.409447 
L 648.964404 73.687245 
L 636.242202 73.687245 
z
" clip-path="url(#p6d929d504f)" style="fill: #ebedf0"/>
   </g>
   <g id="patch_314">
    <path d="M 636.242202 100.545226 
L 648.964404 100.545226 
L 648.964404 87.823025 
L 636.242202 87.823025 
z
" clip-path="url(#p6d929d504f)" style="fill: #ebedf0"/>
   </g>
   <g id="patch_315">
    <path d="M 636.242202 114.681006 
L 648.964404 114.681006 
L 648.964404 101.958804 
L 636.242202 101.958804 
z
" clip-path="url(#p6d929d504f)" style="fill: #ebedf0"/>
   </g>
   <g id="patch_316">
    <path d="M 636.242202 128.816786 
L 648.964404 128.816786 
L 648.964404 116.094584 
L 636.242202 116.094584 
z
" clip-path="url(#p6d929d504f)" style="fill: #ebedf0"/>
   </g>
   <g id="patch_317">
    <path d="M 650.377982 44.002107 
L 663.100183 44.002107 
L 663.100183 31.279905 
L 650.377982 31.279905 
z
" clip-path="url(#p6d929d504f)" style="fill: #ebedf0"/>
   </g>
   <g id="patch_318">
    <path d="M 650.377982 58.137887 
L 663.100183 58.137887 
L 663.100183 45.415685 
L 650.377982 45.415685 
z
" clip-path="url(#p6d929d504f)" style="fill: #ebedf0"/>
   </g>
   <g id="patch_319">
    <path d="M 650.377982 72.273667 
L 663.100183 72.273667 
L 663.100183 59.551465 
L 650.377982 59.551465 
z
" clip-path="url(#p6d929d504f)" style="fill: #ebedf0"/>
   </g>
   <g id="patch_320">
    <path d="M 650.377982 86.409447 
L 663.100183 86.409447 
L 663.100183 73.687245 
L 650.377982 73.687245 
z
" clip-path="url(#p6d929d504f)" style="fill: #ebedf0"/>
   </g>
   <g id="patch_321">
    <path d="M 650.377982 100.545226 
L 663.100183 100.545226 
L 663.100183 87.823025 
L 650.377982 87.823025 
z
" clip-path="url(#p6d929d504f)" style="fill: #ebedf0"/>
   </g>
   <g id="patch_322">
    <path d="M 650.377982 114.681006 
L 663.100183 114.681006 
L 663.100183 101.958804 
L 650.377982 101.958804 
z
" clip-path="url(#p6d929d504f)" style="fill: #ebedf0"/>
   </g>
   <g id="patch_323">
    <path d="M 650.377982 128.816786 
L 663.100183 128.816786 
L 663.100183 116.094584 
L 650.377982 116.094584 
z
" clip-path="url(#p6d929d504f)" style="fill: #ebedf0"/>
   </g>
   <g id="patch_324">
    <path d="M 664.513761 44.002107 
L 677.235963 44.002107 
L 677.235963 31.279905 
L 664.513761 31.279905 
z
" clip-path="url(#p6d929d504f)" style="fill: #ebedf0"/>
   </g>
   <g id="patch_325">
    <path d="M 664.513761 58.137887 
L 677.235963 58.137887 
L 677.235963 45.415685 
L 664.513761 45.415685 
z
" clip-path="url(#p6d929d504f)" style="fill: #ebedf0"/>
   </g>
   <g id="patch_326">
    <path d="M 664.513761 72.273667 
L 677.235963 72.273667 
L 677.235963 59.551465 
L 664.513761 59.551465 
z
" clip-path="url(#p6d929d504f)" style="fill: #ebedf0"/>
   </g>
   <g id="patch_327">
    <path d="M 664.513761 86.409447 
L 677.235963 86.409447 
L 677.235963 73.687245 
L 664.513761 73.687245 
z
" clip-path="url(#p6d929d504f)" style="fill: #ebedf0"/>
   </g>
   <g id="patch_328">
    <path d="M 664.513761 100.545226 
L 677.235963 100.545226 
L 677.235963 87.823025 
L 664.513761 87.823025 
z
" clip-path="url(#p6d929d504f)" style="fill: #ebedf0"/>
   </g>
   <g id="patch_329">
    <path d="M 664.513761 114.681006 
L 677.235963 114.681006 
L 677.235963 101.958804 
L 664.513761 101.958804 
z
" clip-path="url(#p6d929d504f)" style="fill: #ebedf0"/>
   </g>
   <g id="patch_330">
    <path d="M 664.513761 128.816786 
L 677.235963 128.816786 
L 677.235963 116.094584 
L 664.513761 116.094584 
z
" clip-path="url(#p6d929d504f)" style="fill: #ebedf0"/>
   </g>
   <g id="patch_331">
    <path d="M 678.649541 44.002107 
L 691.371743 44.002107 
L 691.371743 31.279905 
L 678.649541 31.279905 
z
" clip-path="url(#p6d929d504f)" style="fill: #ebedf0"/>
   </g>
   <g id="patch_332">
    <path d="M 678.649541 58.137887 
L 691.371743 58.137887 
L 691.371743 45.415685 
L 678.649541 45.415685 
z
" clip-path="url(#p6d929d504f)" style="fill: #ebedf0"/>
   </g>
   <g id="patch_333">
    <path d="M 678.649541 72.273667 
L 691.371743 72.273667 
L 691.371743 59.551465 
L 678.649541 59.551465 
z
" clip-path="url(#p6d929d504f)" style="fill: #ebedf0"/>
   </g>
   <g id="patch_334">
    <path d="M 678.649541 86.409447 
L 691.371743 86.409447 
L 691.371743 73.687245 
L 678.649541 73.687245 
z
" clip-path="url(#p6d929d504f)" style="fill: #ebedf0"/>
   </g>
   <g id="patch_335">
    <path d="M 678.649541 100.545226 
L 691.371743 100.545226 
L 691.371743 87.823025 
L 678.649541 87.823025 
z
" clip-path="url(#p6d929d504f)" style="fill: #ebedf0"/>
   </g>
   <g id="patch_336">
    <path d="M 678.649541 114.681006 
L 691.371743 114.681006 
L 691.371743 101.958804 
L 678.649541 101.958804 
z
" clip-path="url(#p6d929d504f)" style="fill: #ebedf0"/>
   </g>
   <g id="patch_337">
    <path d="M 678.649541 128.816786 
L 691.371743 128.816786 
L 691.371743 116.094584 
L 678.649541 116.094584 
z
" clip-path="url(#p6d929d504f)" style="fill: #ebedf0"/>
   </g>
   <g id="patch_338">
    <path d="M 692.785321 44.002107 
L 705.507523 44.002107 
L 705.507523 31.279905 
L 692.785321 31.279905 
z
" clip-path="url(#p6d929d504f)" style="fill: #ebedf0"/>
   </g>
   <g id="patch_339">
    <path d="M 692.785321 58.137887 
L 705.507523 58.137887 
L 705.507523 45.415685 
L 692.785321 45.415685 
z
" clip-path="url(#p6d929d504f)" style="fill: #ebedf0"/>
   </g>
   <g id="patch_340">
    <path d="M 692.785321 72.273667 
L 705.507523 72.273667 
L 705.507523 59.551465 
L 692.785321 59.551465 
z
" clip-path="url(#p6d929d504f)" style="fill: #ebedf0"/>
   </g>
   <g id="patch_341">
    <path d="M 692.785321 86.409447 
L 705.507523 86.409447 
L 705.507523 73.687245 
L 692.785321 73.687245 
z
" clip-path="url(#p6d929d504f)" style="fill: #ebedf0"/>
   </g>
   <g id="patch_342">
    <path d="M 692.785321 100.545226 
L 705.507523 100.545226 
L 705.507523 87.823025 
L 692.785321 87.823025 
z
" clip-path="url(#p6d929d504f)" style="fill: #ebedf0"/>
   </g>
   <g id="patch_343">
    <path d="M 692.785321 114.681006 
L 705.507523 114.681006 
L 705.507523 101.958804 
L 692.785321 101.958804 
z
" clip-path="url(#p6d929d504f)" style="fill: #ebedf0"/>
   </g>
   <g id="patch_344">
    <path d="M 692.785321 128.816786 
L 705.507523 128.816786 
L 705.507523 116.094584 
L 692.785321 116.094584 
z
" clip-path="url(#p6d929d504f)" style="fill: #ebedf0"/>
   </g>
   <g id="patch_345">
    <path d="M 706.921101 44.002107 
L 719.643303 44.002107 
L 719.643303 31.279905 
L 706.921101 31.279905 
z
" clip-path="url(#p6d929d504f)" style="fill: #ebedf0"/>
   </g>
   <g id="patch_346">
    <path d="M 706.921101 58.137887 
L 719.643303 58.137887 
L 719.643303 45.415685 
L 706.921101 45.415685 
z
" clip-path="url(#p6d929d504f)" style="fill: #ebedf0"/>
   </g>
   <g id="patch_347">
    <path d="M 706.921101 72.273667 
L 719.643303 72.273667 
L 719.643303 59.551465 
L 706.921101 59.551465 
z
" clip-path="url(#p6d929d504f)" style="fill: #ebedf0"/>
   </g>
   <g id="patch_348">
    <path d="M 706.921101 86.409447 
L 719.643303 86.409447 
L 719.643303 73.687245 
L 706.921101 73.687245 
z
" clip-path="url(#p6d929d504f)" style="fill: #ebedf0"/>
   </g>
   <g id="patch_349">
    <path d="M 706.921101 100.545226 
L 719.643303 100.545226 
L 719.643303 87.823025 
L 706.921101 87.823025 
z
" clip-path="url(#p6d929d504f)" style="fill: #ebedf0"/>
   </g>
   <g id="patch_350">
    <path d="M 706.921101 114.681006 
L 719.643303 114.681006 
L 719.643303 101.958804 
L 706.921101 101.958804 
z
" clip-path="url(#p6d929d504f)" style="fill: #ebedf0"/>
   </g>
   <g id="patch_351">
    <path d="M 706.921101 128.816786 
L 719.643303 128.816786 
L 719.643303 116.094584 
L 706.921101 116.094584 
z
" clip-path="url(#p6d929d504f)" style="fill: #ebedf0"/>
   </g>
   <g id="patch_352">
    <path d="M 721.056881 44.002107 
L 733.779083 44.002107 
L 733.779083 31.279905 
L 721.056881 31.279905 
z
" clip-path="url(#p6d929d504f)" style="fill: #ebedf0"/>
   </g>
   <g id="patch_353">
    <path d="M 721.056881 58.137887 
L 733.779083 58.137887 
L 733.779083 45.415685 
L 721.056881 45.415685 
z
" clip-path="url(#p6d929d504f)" style="fill: #ebedf0"/>
   </g>
   <g id="patch_354">
    <path d="M 721.056881 72.273667 
L 733.779083 72.273667 
L 733.779083 59.551465 
L 721.056881 59.551465 
z
" clip-path="url(#p6d929d504f)" style="fill: #ebedf0"/>
   </g>
   <g id="patch_355">
    <path d="M 721.056881 86.409447 
L 733.779083 86.409447 
L 733.779083 73.687245 
L 721.056881 73.687245 
z
" clip-path="url(#p6d929d504f)" style="fill: #ebedf0"/>
   </g>
   <g id="patch_356">
    <path d="M 721.056881 100.545226 
L 733.779083 100.545226 
L 733.779083 87.823025 
L 721.056881 87.823025 
z
" clip-path="url(#p6d929d504f)" style="fill: #ebedf0"/>
   </g>
   <g id="patch_357">
    <path d="M 721.056881 114.681006 
L 733.779083 114.681006 
L 733.779083 101.958804 
L 721.056881 101.958804 
z
" clip-path="url(#p6d929d504f)" style="fill: #ebedf0"/>
   </g>
   <g id="patch_358">
    <path d="M 721.056881 128.816786 
L 733.779083 128.816786 
L 733.779083 116.094584 
L 721.056881 116.094584 
z
" clip-path="url(#p6d929d504f)" style="fill: #ebedf0"/>
   </g>
   <g id="patch_359">
    <path d="M 735.192661 44.002107 
L 747.914862 44.002107 
L 747.914862 31.279905 
L 735.192661 31.279905 
z
" clip-path="url(#p6d929d504f)" style="fill: #ebedf0"/>
   </g>
   <g id="patch_360">
    <path d="M 735.192661 58.137887 
L 747.914862 58.137887 
L 747.914862 45.415685 
L 735.192661 45.415685 
z
" clip-path="url(#p6d929d504f)" style="fill: #ebedf0"/>
   </g>
   <g id="patch_361">
    <path d="M 735.192661 72.273667 
L 747.914862 72.273667 
L 747.914862 59.551465 
L 735.192661 59.551465 
z
" clip-path="url(#p6d929d504f)" style="fill: #ebedf0"/>
   </g>
   <g id="patch_362">
    <path d="M 735.192661 86.409447 
L 747.914862 86.409447 
L 747.914862 73.687245 
L 735.192661 73.687245 
z
" clip-path="url(#p6d929d504f)" style="fill: #ebedf0"/>
   </g>
   <g id="patch_363">
    <path d="M 735.192661 100.545226 
L 747.914862 100.545226 
L 747.914862 87.823025 
L 735.192661 87.823025 
z
" clip-path="url(#p6d929d504f)" style="fill: #ebedf0"/>
   </g>
   <g id="patch_364">
    <path d="M 735.192661 114.681006 
L 747.914862 114.681006 
L 747.914862 101.958804 
L 735.192661 101.958804 
z
" clip-path="url(#p6d929d504f)" style="fill: #ebedf0"/>
   </g>
   <g id="patch_365">
    <path d="M 735.192661 128.816786 
L 747.914862 128.816786 
L 747.914862 116.094584 
L 735.192661 116.094584 
z
" clip-path="url(#p6d929d504f)" style="fill: #ebedf0"/>
   </g>
   <g id="patch_366">
    <path d="M 749.32844 44.002107 
L 762.050642 44.002107 
L 762.050642 31.279905 
L 749.32844 31.279905 
z
" clip-path="url(#p6d929d504f)" style="fill: #ebedf0"/>
   </g>
   <g id="patch_367">
    <path d="M 749.32844 58.137887 
L 762.050642 58.137887 
L 762.050642 45.415685 
L 749.32844 45.415685 
z
" clip-path="url(#p6d929d504f)" style="fill: #ebedf0"/>
   </g>
   <g id="patch_368">
    <path d="M 749.32844 72.273667 
L 762.050642 72.273667 
L 762.050642 59.551465 
L 749.32844 59.551465 
z
" clip-path="url(#p6d929d504f)" style="fill: #ebedf0"/>
   </g>
   <g id="patch_369">
    <path d="M 749.32844 86.409447 
L 762.050642 86.409447 
L 762.050642 73.687245 
L 749.32844 73.687245 
z
" clip-path="url(#p6d929d504f)" style="fill: #ebedf0"/>
   </g>
   <g id="patch_370">
    <path d="M 749.32844 100.545226 
L 762.050642 100.545226 
L 762.050642 87.823025 
L 749.32844 87.823025 
z
" clip-path="url(#p6d929d504f)" style="fill: #ebedf0"/>
   </g>
   <g id="patch_371">
    <path d="M 749.32844 114.681006 
L 762.050642 114.681006 
L 762.050642 101.958804 
L 749.32844 101.958804 
z
" clip-path="url(#p6d929d504f)" style="fill: #ebedf0"/>
   </g>
   <g id="patch_372">
    <path d="M 749.32844 128.816786 
L 762.050642 128.816786 
L 762.050642 116.094584 
L 749.32844 116.094584 
z
" clip-path="url(#p6d929d504f)" style="fill: #ebedf0"/>
   </g>
   <g id="patch_373">
    <path d="M 763.46422 44.002107 
L 776.186422 44.002107 
L 776.186422 31.279905 
L 763.46422 31.279905 
z
" clip-path="url(#p6d929d504f)" style="fill: #ebedf0"/>
   </g>
   <g id="patch_374">
    <path d="M 763.46422 58.137887 
L 776.186422 58.137887 
L 776.186422 45.415685 
L 763.46422 45.415685 
z
" clip-path="url(#p6d929d504f)" style="fill: #ebedf0"/>
   </g>
   <g id="patch_375">
    <path d="M 763.46422 72.273667 
L 776.186422 72.273667 
L 776.186422 59.551465 
L 763.46422 59.551465 
z
" clip-path="url(#p6d929d504f)" style="fill: #87d598"/>
   </g>
   <g id="patch_376">
    <path d="M 763.46422 86.409447 
L 776.186422 86.409447 
L 776.186422 73.687245 
L 763.46422 73.687245 
z
" clip-path="url(#p6d929d504f)" style="fill: #ebedf0"/>
   </g>
   <g id="text_1">
    <!-- Hours per day, last 53 weeks (max 0.8h) -->
    <g transform="translate(7.2 14.798437) scale(0.1 -0.1)">
     <defs>
      <path id="DejaVuSans-48" d="M 628 4666 
L 1259 4666 
L 1259 2753 
L 3553 2753 
L 3553 4666 
L 4184 4666 
L 4184 0 
L 3553 0 
L 3553 2222 
L 1259 2222 
L 1259 0 
L 628 0 
L 628 4666 
z
" transform="scale(0.015625)"/>
      <path id="DejaVuSans-6f" d="M 1959 3097 
Q 1497 3097 1228 2736 
Q 959 2375 959 1747 
Q 959 1119 1226 758 
Q 1494 397 1959 397 
Q 2419 397 2687 759 
Q 2956 1122 2956 1747 
Q 2956 2369 2687 2733 
Q 2419 3097 1959 3097 
z
M 1959 3584 
Q 2709 3584 3137 3096 
Q 3566 2609 3566 1747 
Q 3566 888 3137 398 
Q 2709 -91 1959 -91 
Q 1206 -91 779 398 
Q 353 888 353 1747 
Q 353 2609 779 3096 
Q 1206 3584 1959 3584 
z
" transform="scale(0.015625)"/>
      <path id="DejaVuSans-75" d="M 544 1381 
L 544 3500 
L 1119 3500 
L 1119 1403 
Q 1119 906 1312 657 
Q 1506 409 1894 409 
Q 2359 409 2629 706 
Q 2900 1003 2900 1516 
L 2900 3500 
L 3475 3500 
L 3475 0 
L 2900 0 
L 2900 538 
Q 2691 219 2414 64 
Q 2138 -91 1772 -91 
Q 1169 -91 856 284 
Q 544 659 544 1381 
z
M 1991 3584 
L 1991 3584 
z
" transform="scale(0.015625)"/>
      <path id="DejaVuSans-72" d="M 2631 2963 
Q 2534 3019 2420 3045 
Q 2306 3072 2169 3072 
Q 1681 3072 1420 2755 
Q 1159 2438 1159 1844 
L 1159 0 
L 581 0 
L 581 3500 
L 1159 3500 
L 1159 2956 
Q 1341 3275 1631 3429 
Q 1922 3584 2338 3584 
Q 2397 3584 2469 3576 
Q 2541 3569 2628 3553 
L 2631 2963 
z
" transform="scale(0.015625)"/>
      <path id="DejaVuSans-73" d="M 2834 3397 
L 2834 2853 
Q 2591 2978 2328 3040 
Q 2066 3103 1784 3103 
Q 1356 3103 1142 2972 
Q 928 2841 928 2578 
Q 928 2378 1081 2264 
Q 1234 2150 1697 2047 
L 1894 2003 
Q 2506 1872 2764 1633 
Q 3022 1394 3022 966 
Q 3022 478 2636 193 
Q 2250 -91 1575 -91 
Q 1294 -91 989 -36 
Q 684 19 347 128 
L 347 722 
Q 666 556 975 473 
Q 1284 391 1588 391 
Q 1994 391 2212 530 
Q 2431 669 2431 922 
Q 2431 1156 2273 1281 
Q 2116 1406 1581 1522 
L 1381 1569 
Q 847 1681 609 1914 
Q 372 2147 372 2553 
Q 372 3047 722 3315 
Q 1072 3584 1716 3584 
Q 2034 3584 2315 3537 
Q 2597 3491 2834 3397 
z
" transform="scale(0.015625)"/>
      <path id="DejaVuSans-20" transform="scale(0.015625)"/>
      <path id="DejaVuSans-70" d="M 1159 525 
L 1159 -1331 
L 581 -1331 
L 581 3500 
L 1159 3500 
L 1159 2969 
Q 1341 3281 1617 3432 
Q 1894 3584 2278 3584 
Q 2916 3584 3314 3078 
Q 3713 2572 3713 1747 
Q 3713 922 3314 415 
Q 2916 -91 2278 -91 
Q 1894 -91 1617 61 
Q 1341 213 1159 525 
z
M 3116 1747 
Q 3116 2381 2855 2742 
Q 2594 3103 2138 3103 
Q 1681 3103 1420 2742 
Q 1159 2381 1159 1747 
Q 1159 1113 1420 752 
Q 1681 391 2138 391 
Q 2594 391 2855 752 
Q 3116 1113 3116 1747 
z
" transform="scale(0.015625)"/>
      <path id="DejaVuSans-65" d="M 3597 1894 
L 3597 1613 
L 953 1613 
Q 991 1019 1311 708 
Q 1631 397 2203 397 
Q 2534 397 2845 478 
Q 3156 559 3463 722 
L 3463 178 
Q 3153 47 2828 -22 
Q 2503 -91 2169 -91 
Q 1331 -91 842 396 
Q 353 884 353 1716 
Q 353 2575 817 3079 
Q 1281 3584 2069 3584 
Q 2775 3584 3186 3129 
Q 3597 2675 3597 1894 
z
M 3022 2063 
Q 3016 2534 2758 2815 
Q 2500 3097 2075 3097 
Q 1594 3097 1305 2825 
Q 1016 2553 972 2059 
L 3022 2063 
z
" transform="scale(0.015625)"/>
      <path id="DejaVuSans-64" d="M 2906 2969 
L 2906 4863 
L 3481 4863 
L 3481 0 
L 2906 0 
L 2906 525 
Q 2725 213 2448 61 
Q 2172 -91 1784 -91 
Q 1150 -91 751 415 
Q 353 922 353 1747 
Q 353 2572 751 3078 
Q 1150 3584 1784 3584 
Q 2172 3584 2448 3432 
Q 2725 3281 2906 2969 
z
M 947 1747 
Q 947 1113 1208 752 
Q 1469 391 1925 391 
Q 2381 391 2643 752 
Q 2906 1113 2906 1747 
Q 2906 2381 2643 2742 
Q 2381 3103 1925 3103 
Q 1469 3103 1208 2742 
Q 947 2381 947 1747 
z
" transform="scale(0.015625)"/>
      <path id="DejaVuSans-61" d="M 2194 1759 
Q 1497 1759 1228 1600 
Q 959 1441 959 1056 
Q 959 750 1161 570 
Q 1363 391 1709 391 
Q 2188 391 2477 730 
Q 2766 1069 2766 1631 
L 2766 1759 
L 2194 1759 
z
M 3341 1997 
L 3341 0 
L 2766 0 
L 2766 531 
Q 2569 213 2275 61 
Q 1981 -91 1556 -91 
Q 1019 -91 701 211 
Q 384 513 384 1019 
Q 384 1609 779 1909 
Q 1175 2209 1959 2209 
L 2766 2209 
L 2766 2266 
Q 2766 2663 2505 2880 
Q 2244 3097 1772 3097 
Q 1472 3097 1187 3025 
Q 903 2953 641 2809 
L 641 3341 
Q 956 3463 1253 3523 
Q 1550 3584 1831 3584 
Q 2591 3584 2966 3190 
Q 3341 2797 3341 1997 
z
" transform="scale(0.015625)"/>
      <path id="DejaVuSans-79" d="M 2059 -325 
Q 1816 -950 1584 -1140 
Q 1353 -1331 966 -1331 
L 506 -1331 
L 506 -850 
L 844 -850 
Q 1081 -850 1212 -737 
Q 1344 -625 1503 -206 
L 1606 56 
L 191 3500 
L 800 3500 
L 1894 763 
L 2988 3500 
L 3597 3500 
L 2059 -325 
z
" transform="scale(0.015625)"/>
      <path id="DejaVuSans-2c" d="M 750 794 
L 1409 794 
L 1409 256 
L 897 -744 
L 494 -744 
L 750 256 
L 750 794 
z
" transform="scale(0.015625)"/>
      <path id="DejaVuSans-6c" d="M 603 4863 
L 1178 4863 
L 1178 0 
L 603 0 
L 603 4863 
z
" transform="scale(0.015625)"/>
      <path id="DejaVuSans-74" d="M 1172 4494 
L 1172 3500 
L 2356 3500 
L 2356 3053 
L 1172 3053 
L 1172 1153 
Q 1172 725 1289 603 
Q 1406 481 1766 481 
L 2356 481 
L 2356 0 
L 1766 0 
Q 1100 0 847 248 
Q 594 497 594 1153 
L 594 3053 
L 172 3053 
L 172 3500 
L 594 3500 
L 594 4494 
L 1172 4494 
z
" transform="scale(0.015625)"/>
      <path id="DejaVuSans-35" d="M 691 4666 
L 3169 4666 
L 3169 4134 
L 1269 4134 
L 1269 2991 
Q 1406 3038 1543 3061 
Q 1681 3084 1819 3084 
Q 2600 3084 3056 2656 
Q 3513 2228 3513 1497 
Q 3513 744 3044 326 
Q 2575 -91 1722 -91 
Q 1428 -91 1123 -41 
Q 819 9 494 109 
L 494 744 
Q 775 591 1075 516 
Q 1375 441 1709 441 
Q 2250 441 2565 725 
Q 2881 1009 2881 1497 
Q 2881 1984 2565 2268 
Q 2250 2553 1709 2553 
Q 1456 2553 1204 2497 
Q 953 2441 691 2322 
L 691 4666 
z
" transform="scale(0.015625)"/>
      <path id="DejaVuSans-33" d="M 2597 2516 
Q 3050 2419 3304 2112 
Q 3559 1806 3559 1356 
Q 3559 666 3084 287 
Q 2609 -91 1734 -91 
Q 1441 -91 1130 -33 
Q 819 25 488 141 
L 488 750 
Q 750 597 1062 519 
Q 1375 441 1716 441 
Q 2309 441 2620 675 
Q 2931 909 2931 1356 
Q 2931 1769 2642 2001 
Q 2353 2234 1838 2234 
L 1294 2234 
L 1294 2753 
L 1863 2753 
Q 2328 2753 2575 2939 
Q 2822 3125 2822 3475 
Q 2822 3834 2567 4026 
Q 2313 4219 1838 4219 
Q 1578 4219 1281 4162 
Q 984 4106 628 3988 
L 628 4550 
Q 988 4650 1302 4700 
Q 1616 4750 1894 4750 
Q 2613 4750 3031 4423 
Q 3450 4097 3450 3541 
Q 3450 3153 3228 2886 
Q 3006 2619 2597 2516 
z
" transform="scale(0.015625)"/>
      <path id="DejaVuSans-77" d="M 269 3500 
L 844 3500 
L 1563 769 
L 2278 3500 
L 2956 3500 
L 3675 769 
L 4391 3500 
L 4966 3500 
L 4050 0 
L 3372 0 
L 2619 2869 
L 1863 0 
L 1184 0 
L 269 3500 
z
" transform="scale(0.015625)"/>
      <path id="DejaVuSans-6b" d="M 581 4863 
L 1159 4863 
L 1159 1991 
L 2875 3500 
L 3609 3500 
L 1753 1863 
L 3688 0 
L 2938 0 
L 1159 1709 
L 1159 0 
L 581 0 
L 581 4863 
z
" transform="scale(0.015625)"/>
      <path id="DejaVuSans-28" d="M 1984 4856 
Q 1566 4138 1362 3434 
Q 1159 2731 1159 2009 
Q 1159 1288 1364 580 
Q 1569 -128 1984 -844 
L 1484 -844 
Q 1016 -109 783 600 
Q 550 1309 550 2009 
Q 550 2706 781 3412 
Q 1013 4119 1484 4856 
L 1984 4856 
z
" transform="scale(0.015625)"/>
      <path id="DejaVuSans-6d" d="M 3328 2828 
Q 3544 3216 3844 3400 
Q 4144 3584 4550 3584 
Q 5097 3584 5394 3201 
Q 5691 2819 5691 2113 
L 5691 0 
L 5113 0 
L 5113 2094 
Q 5113 2597 4934 2840 
Q 4756 3084 4391 3084 
Q 3944 3084 3684 2787 
Q 3425 2491 3425 1978 
L 3425 0 
L 2847 0 
L 2847 2094 
Q 2847 2600 2669 2842 
Q 2491 3084 2119 3084 
Q 1678 3084 1418 2786 
Q 1159 2488 1159 1978 
L 1159 0 
L 581 0 
L 581 3500 
L 1159 3500 
L 1159 2956 
Q 1356 3278 1631 3431 
Q 1906 3584 2284 3584 
Q 2666 3584 2933 3390 
Q 3200 3197 3328 2828 
z
" transform="scale(0.015625)"/>
      <path id="DejaVuSans-78" d="M 3513 3500 
L 2247 1797 
L 3578 0 
L 2900 0 
L 1881 1375 
L 863 0 
L 184 0 
L 1544 1831 
L 300 3500 
L 978 3500 
L 1906 2253 
L 2834 3500 
L 3513 3500 
z
" transform="scale(0.015625)"/>
      <path id="DejaVuSans-30" d="M 2034 4250 
Q 1547 4250 1301 3770 
Q 1056 3291 1056 2328 
Q 1056 1369 1301 889 
Q 1547 409 2034 409 
Q 2525 409 2770 889 
Q 3016 1369 3016 2328 
Q 3016 3291 2770 3770 
Q 2525 4250 2034 4250 
z
M 2034 4750 
Q 2819 4750 3233 4129 
Q 3647 3509 3647 2328 
Q 3647 1150 3233 529 
Q 2819 -91 2034 -91 
Q 1250 -91 836 529 
Q 422 1150 422 2328 
Q 422 3509 836 4129 
Q 1250 4750 2034 4750 
z
" transform="scale(0.015625)"/>
      <path id="DejaVuSans-2e" d="M 684 794 
L 1344 794 
L 1344 0 
L 684 0 
L 684 794 
z
" transform="scale(0.015625)"/>
      <path id="DejaVuSans-38" d="M 2034 2216 
Q 1584 2216 1326 1975 
Q 1069 1734 1069 1313 
Q 1069 891 1326 650 
Q 1584 409 2034 409 
Q 2484 409 2743 651 
Q 3003 894 3003 1313 
Q 3003 1734 2745 1975 
Q 2488 2216 2034 2216 
z
M 1403 2484 
Q 997 2584 770 2862 
Q 544 3141 544 3541 
Q 544 4100 942 4425 
Q 1341 4750 2034 4750 
Q 2731 4750 3128 4425 
Q 3525 4100 3525 3541 
Q 3525 3141 3298 2862 
Q 3072 2584 2669 2484 
Q 3125 2378 3379 2068 
Q 3634 1759 3634 1313 
Q 3634 634 3220 271 
Q 2806 -91 2034 -91 
Q 1263 -91 848 271 
Q 434 634 434 1313 
Q 434 1759 690 2068 
Q 947 2378 1403 2484 
z
M 1172 3481 
Q 1172 3119 1398 2916 
Q 1625 2713 2034 2713 
Q 2441 2713 2670 2916 
Q 2900 3119 2900 3481 
Q 2900 3844 2670 4047 
Q 2441 4250 2034 4250 
Q 1625 4250 1398 4047 
Q 1172 3844 1172 3481 
z
" transform="scale(0.015625)"/>
      <path id="DejaVuSans-68" d="M 3513 2113 
L 3513 0 
L 2938 0 
L 2938 2094 
Q 2938 2591 2744 2837 
Q 2550 3084 2163 3084 
Q 1697 3084 1428 2787 
Q 1159 2491 1159 1978 
L 1159 0 
L 581 0 
L 581 4863 
L 1159 4863 
L 1159 2956 
Q 1366 3272 1645 3428 
Q 1925 3584 2291 3584 
Q 2894 3584 3203 3211 
Q 3513 2838 3513 2113 
z
" transform="scale(0.015625)"/>
      <path id="DejaVuSans-29" d="M 513 4856 
L 1013 4856 
Q 1481 4119 1714 3412 
Q 1947 2706 1947 2009 
Q 1947 1309 1714 600 
Q 1481 -109 1013 -844 
L 513 -844 
Q 928 -128 1133 580 
Q 1338 1288 1338 2009 
Q 1338 2731 1133 3434 
Q 928 4138 513 4856 
z
" transform="scale(0.015625)"/>
     </defs>
     <use xlink:href="#DejaVuSans-48"/>
     <use xlink:href="#DejaVuSans-6f" transform="translate(75.195312 0)"/>
     <use xlink:href="#DejaVuSans-75" transform="translate(136.376953 0)"/>
     <use xlink:href="#DejaVuSans-72" transform="translate(199.755859 0)"/>
     <use xlink:href="#DejaVuSans-73" transform="translate(240.869141 0)"/>
     <use xlink:href="#DejaVuSans-20" transform="translate(292.96875 0)"/>
     <use xlink:href="#DejaVuSans-70" transform="translate(324.755859 0)"/>
     <use xlink:href="#DejaVuSans-65" transform="translate(388.232422 0)"/>
     <use xlink:href="#DejaVuSans-72" transform="translate(449.755859 0)"/>
     <use xlink:href="#DejaVuSans-20" transform="translate(490.869141 0)"/>
     <use xlink:href="#DejaVuSans-64" transform="translate(522.65625 0)"/>
     <use xlink:href="#DejaVuSans-61" transform="translate(586.132812 0)"/>
     <use xlink:href="#DejaVuSans-79" transform="translate(647.412109 0)"/>
     <use xlink:href="#DejaVuSans-2c" transform="translate(706.591797 0)"/>
     <use xlink:href="#DejaVuSans-20" transform="translate(738.378906 0)"/>
     <use xlink:href="#DejaVuSans-6c" transform="translate(770.166016 0)"/>
     <use xlink:href="#DejaVuSans-61" transform="translate(797.949219 0)"/>
     <use xlink:href="#DejaVuSans-73" transform="translate(859.228516 0)"/>
     <use xlink:href="#DejaVuSans-74" transform="translate(911.328125 0)"/>
     <use xlink:href="#DejaVuSans-20" transform="translate(950.537109 0)"/>
     <use xlink:href="#DejaVuSans-35" transform="translate(982.324219 0)"/>
     <use xlink:href="#DejaVuSans-33" transform="translate(1045.947266 0)"/>
     <use xlink:href="#DejaVuSans-20" transform="translate(1109.570312 0)"/>
     <use xlink:href="#DejaVuSans-77" transform="translate(1141.357422 0)"/>
     <use xlink:href="#DejaVuSans-65" transform="translate(1223.144531 0)"/>
     <use xlink:href="#DejaVuSans-65" transform="translate(1284.667969 0)"/>
     <use xlink:href="#DejaVuSans-6b" transform="translate(1346.191406 0)"/>
     <use xlink:href="#DejaVuSans-73" transform="translate(1404.101562 0)"/>
     <use xlink:href="#DejaVuSans-20" transform="translate(1456.201172 0)"/>
     <use xlink:href="#DejaVuSans-28" transform="translate(1487.988281 0)"/>
     <use xlink:href="#DejaVuSans-6d" transform="translate(1527.001953 0)"/>
     <use xlink:href="#DejaVuSans-61" transform="translate(1624.414062 0)"/>
     <use xlink:href="#DejaVuSans-78" transform="translate(1685.693359 0)"/>
     <use xlink:href="#DejaVuSans-20" transform="translate(1744.873047 0)"/>
     <use xlink:href="#DejaVuSans-30" transform="translate(1776.660156 0)"/>
     <use xlink:href="#DejaVuSans-2e" transform="translate(1840.283203 0)"/>
     <use xlink:href="#DejaVuSans-38" transform="translate(1872.070312 0)"/>
     <use xlink:href="#DejaVuSans-68" transform="translate(1935.693359 0)"/>
     <use xlink:href="#DejaVuSans-29" transform="translate(1999.072266 0)"/>
    </g>
   </g>
  </g>
 </g>
 <defs>
  <clipPath id="p6d929d504f">
   <rect x="7.2" y="22.798437" width="770.4" height="113.086239"/>
  </clipPath>
 </defs>
</svg>
